<svg width="78" height="69" viewBox="0 0 78 69" fill="none" xmlns="http://www.w3.org/2000/svg">
<path d="M38.8067 2.22696L39.8192 0.502178C39.1993 0.138275 38.4317 0.135038 37.8088 0.493698L38.8067 2.22696ZM70.0924 20.5924L71.1049 22.3172C71.7167 21.9581 72.0924 21.3018 72.0924 20.5924C72.0924 19.883 71.7167 19.2267 71.1049 18.8676L70.0924 20.5924ZM38.8067 38.9579L37.8088 40.6912C38.4317 41.0499 39.1993 41.0466 39.8192 40.6827L38.8067 38.9579ZM6.90755 20.5924L5.90965 18.8592C5.28966 19.2161 4.90755 19.877 4.90755 20.5924C4.90755 21.3078 5.28966 21.9688 5.90965 22.3257L6.90755 20.5924ZM39 66.9538L37.9846 68.6769C38.6017 69.0405 39.3661 69.0464 39.9887 68.6923L39 66.9538ZM7 48.0966H5C5 48.8048 5.3745 49.4602 5.98462 49.8197L7 48.0966ZM9 38.6681C9 37.5635 8.10457 36.6681 7 36.6681C5.89543 36.6681 5 37.5635 5 38.6681H9ZM32.0667 50.1326L31.0586 51.86C31.5484 52.1459 32.1365 52.2103 32.6766 52.0374C33.2167 51.8644 33.658 51.4703 33.8906 50.9531L32.0667 50.1326ZM2 32.5864L0.158738 31.8056C-0.234239 32.7322 0.12263 33.8065 0.991944 34.3138L2 32.5864ZM37.324 43.3204C37.7771 42.3131 37.3278 41.1292 36.3205 40.676C35.3131 40.2229 34.1292 40.6722 33.676 41.6795L37.324 43.3204ZM45.4333 50.1326L43.6094 50.9531C43.842 51.4703 44.2833 51.8644 44.8234 52.0374C45.3635 52.2103 45.9516 52.1459 46.4414 51.86L45.4333 50.1326ZM75.5 32.5864L76.5081 34.3138C77.3774 33.8065 77.7342 32.7322 77.3413 31.8056L75.5 32.5864ZM43.824 41.6795C43.3708 40.6722 42.1869 40.2229 41.1795 40.676C40.1722 41.1292 39.7229 42.3131 40.176 43.3204L43.824 41.6795ZM71 48.7547L71.9887 50.4933C72.5821 50.1558 72.9624 49.5389 72.9974 48.8571L71 48.7547ZM73.4974 39.1024C73.5539 37.9992 72.7055 37.0592 71.6024 37.0026C70.4993 36.9461 69.5592 37.7945 69.5026 38.8976L73.4974 39.1024ZM37 42.2038C37 43.3084 37.8954 44.2038 39 44.2038C40.1046 44.2038 41 43.3084 41 42.2038H37ZM41 49.2752C41 48.1707 40.1046 47.2752 39 47.2752C37.8954 47.2752 37 48.1707 37 49.2752H41ZM37 56.3466C37 57.4512 37.8954 58.3466 39 58.3466C40.1046 58.3466 41 57.4512 41 56.3466H37ZM41 63.4181C41 62.3135 40.1046 61.4181 39 61.4181C37.8954 61.4181 37 62.3135 37 63.4181H41ZM5 41.0252C5 42.1298 5.89543 43.0252 7 43.0252C8.10457 43.0252 9 42.1298 9 41.0252H5ZM9 45.7395C9 44.6349 8.10457 43.7395 7 43.7395C5.89543 43.7395 5 44.6349 5 45.7395H9ZM8.65128 51.3912C9.60291 51.9519 10.829 51.6351 11.3897 50.6835C11.9505 49.7318 11.6337 48.5058 10.6821 47.945L8.65128 51.3912ZM16.0154 51.0879C15.0638 50.5271 13.8377 50.8439 13.2769 51.7955C12.7161 52.7472 13.033 53.9732 13.9846 54.534L16.0154 51.0879ZM19.3179 57.6769C20.2696 58.2376 21.4956 57.9208 22.0564 56.9692C22.6172 56.0175 22.3003 54.7915 21.3487 54.2307L19.3179 57.6769ZM26.6821 57.3736C25.7304 56.8128 24.5044 57.1296 23.9436 58.0813C23.3828 59.0329 23.6997 60.2589 24.6513 60.8197L26.6821 57.3736ZM29.9846 63.9626C30.9362 64.5234 32.1623 64.2065 32.7231 63.2549C33.2839 62.3033 32.967 61.0772 32.0154 60.5164L29.9846 63.9626ZM37.3487 63.6593C36.3971 63.0985 35.171 63.4153 34.6103 64.367C34.0495 65.3186 34.3663 66.5447 35.3179 67.1054L37.3487 63.6593ZM42.6554 67.1757C43.6155 66.6297 43.9512 65.4086 43.4052 64.4485C42.8591 63.4883 41.6381 63.1526 40.6779 63.6987L42.6554 67.1757ZM46.0113 60.6655C45.0511 61.2116 44.7154 62.4326 45.2615 63.3928C45.8075 64.3529 47.0286 64.6886 47.9887 64.1425L46.0113 60.6655ZM53.3221 61.1094C54.2822 60.5633 54.6179 59.3423 54.0718 58.3821C53.5258 57.422 52.3048 57.0863 51.3446 57.6323L53.3221 61.1094ZM56.6779 54.5992C55.7178 55.1452 55.3821 56.3663 55.9282 57.3264C56.4742 58.2866 57.6952 58.6222 58.6554 58.0762L56.6779 54.5992ZM63.9887 55.043C64.9489 54.497 65.2846 53.2759 64.7385 52.3158C64.1925 51.3556 62.9714 51.0199 62.0113 51.566L63.9887 55.043ZM67.3446 48.5328C66.3845 49.0789 66.0488 50.2999 66.5948 51.2601C67.1409 52.2202 68.3619 52.5559 69.3221 52.0098L67.3446 48.5328ZM73.1224 46.4184C73.1789 45.3153 72.3305 44.3752 71.2274 44.3187C70.1243 44.2621 69.1842 45.1106 69.1276 46.2137L73.1224 46.4184ZM69.3776 41.3363C69.3211 42.4394 70.1695 43.3795 71.2726 43.4361C72.3757 43.4926 73.3158 42.6442 73.3724 41.5411L69.3776 41.3363ZM3.85874 23.0811C3.42748 24.098 3.90223 25.2719 4.91913 25.7032C5.93603 26.1345 7.11 25.6597 7.54126 24.6428L3.85874 23.0811ZM5.0746 30.4591C5.50586 29.4422 5.0311 28.2683 4.0142 27.837C2.9973 27.4058 1.82333 27.8805 1.39207 28.8974L5.0746 30.4591ZM4.75028 36.5071C5.70428 37.0638 6.92897 36.7418 7.48571 35.7878C8.04244 34.8338 7.72039 33.6091 6.76639 33.0523L4.75028 36.5071ZM14.2831 37.4389C13.3291 36.8822 12.1044 37.2042 11.5476 38.1582C10.9909 39.1122 11.3129 40.3369 12.2669 40.8936L14.2831 37.4389ZM19.7836 45.2802C20.7376 45.8369 21.9623 45.5149 22.519 44.5609C23.0758 43.6069 22.7537 42.3822 21.7997 41.8254L19.7836 45.2802ZM29.3164 46.212C28.3624 45.6553 27.1377 45.9773 26.581 46.9313C26.0242 47.8853 26.3463 49.11 27.3003 49.6667L29.3164 46.212ZM34.749 49.0449C35.2021 48.0376 34.7528 46.8536 33.7455 46.4005C32.7381 45.9474 31.5542 46.3967 31.101 47.404L34.749 49.0449ZM32.8177 43.5877C32.3646 44.595 32.8139 45.779 33.8212 46.2321C34.8286 46.6852 36.0125 46.236 36.4656 45.2286L32.8177 43.5877ZM41.0344 45.2286C41.4875 46.236 42.6714 46.6852 43.6788 46.2321C44.6861 45.779 45.1354 44.595 44.6823 43.5877L41.0344 45.2286ZM46.399 47.404C45.9458 46.3967 44.7619 45.9474 43.7545 46.4005C42.7472 46.8536 42.2979 48.0376 42.751 49.0449L46.399 47.404ZM50.1997 49.6667C51.1537 49.11 51.4758 47.8853 50.919 46.9313C50.3623 45.9773 49.1376 45.6553 48.1836 46.212L50.1997 49.6667ZM55.7003 41.8254C54.7463 42.3822 54.4242 43.6069 54.981 44.5609C55.5377 45.5149 56.7624 45.8369 57.7164 45.2802L55.7003 41.8254ZM65.2331 40.8936C66.1871 40.3369 66.5091 39.1122 65.9524 38.1582C65.3956 37.2042 64.1709 36.8822 63.2169 37.4389L65.2331 40.8936ZM70.7336 33.0523C69.7796 33.6091 69.4576 34.8338 70.0143 35.7878C70.571 36.7418 71.7957 37.0638 72.7497 36.5071L70.7336 33.0523ZM76.1079 28.8974C75.6767 27.8805 74.5027 27.4058 73.4858 27.837C72.4689 28.2683 71.9941 29.4422 72.4254 30.4591L76.1079 28.8974ZM69.9587 24.6428C70.39 25.6597 71.564 26.1345 72.5809 25.7032C73.5978 25.2719 74.0725 24.098 73.6413 23.0811L69.9587 24.6428ZM35.1505 2.02415C34.1933 2.57528 33.864 3.79806 34.4152 4.75532C34.9663 5.71257 36.1891 6.0418 37.1463 5.49068L35.1505 2.02415ZM31.8298 8.55159C32.7871 8.00047 33.1163 6.77768 32.5652 5.82043C32.014 4.86317 30.7913 4.53394 29.834 5.08507L31.8298 8.55159ZM24.5175 8.14598C23.5602 8.69711 23.231 9.91989 23.7821 10.8771C24.3332 11.8344 25.556 12.1636 26.5133 11.6125L24.5175 8.14598ZM21.1968 14.6734C22.154 14.1223 22.4832 12.8995 21.9321 11.9423C21.381 10.985 20.1582 10.6558 19.201 11.2069L21.1968 14.6734ZM13.8844 14.2678C12.9272 14.8189 12.5979 16.0417 13.1491 16.999C13.7002 17.9562 14.923 18.2855 15.8802 17.7343L13.8844 14.2678ZM10.5637 20.7952C11.521 20.2441 11.8502 19.0213 11.2991 18.0641C10.7479 17.1068 9.52516 16.7776 8.56791 17.3287L10.5637 20.7952ZM8.56791 23.8562C9.52516 24.4073 10.7479 24.0781 11.2991 23.1208C11.8502 22.1635 11.521 20.9408 10.5637 20.3896L8.56791 23.8562ZM15.8802 23.4506C14.923 22.8994 13.7002 23.2287 13.1491 24.1859C12.5979 25.1432 12.9272 26.3659 13.8844 26.9171L15.8802 23.4506ZM19.201 29.978C20.1582 30.5291 21.381 30.1999 21.9321 29.2426C22.4832 28.2854 22.154 27.0626 21.1968 26.5115L19.201 29.978ZM26.5133 29.5724C25.556 29.0213 24.3332 29.3505 23.7821 30.3077C23.231 31.265 23.5602 32.4878 24.5175 33.0389L26.5133 29.5724ZM29.834 36.0998C30.7913 36.6509 32.014 36.3217 32.5652 35.3645C33.1163 34.4072 32.7871 33.1844 31.8298 32.6333L29.834 36.0998ZM37.1463 35.6942C36.1891 35.1431 34.9663 35.4723 34.4152 36.4296C33.864 37.3868 34.1933 38.6096 35.1505 39.1607L37.1463 35.6942ZM42.4263 39.1523C43.3789 38.5931 43.6978 37.3676 43.1386 36.415C42.5794 35.4624 41.3539 35.1435 40.4013 35.7027L42.4263 39.1523ZM45.6156 32.6418C44.6631 33.201 44.3442 34.4265 44.9033 35.379C45.4625 36.3316 46.688 36.6505 47.6406 36.0913L45.6156 32.6418ZM52.8549 33.0304C53.8075 32.4712 54.1264 31.2457 53.5672 30.2931C53.008 29.3406 51.7825 29.0217 50.8299 29.5809L52.8549 33.0304ZM56.0442 26.5199C55.0916 27.0791 54.7727 28.3046 55.3319 29.2572C55.8911 30.2098 57.1166 30.5287 58.0692 29.9695L56.0442 26.5199ZM63.2835 26.9086C64.2361 26.3494 64.555 25.1239 63.9958 24.1713C63.4366 23.2187 62.2111 22.8998 61.2585 23.459L63.2835 26.9086ZM66.4728 20.3981C65.5202 20.9573 65.2013 22.1828 65.7605 23.1354C66.3197 24.0879 67.5452 24.4068 68.4978 23.8477L66.4728 20.3981ZM68.4978 17.3372C67.5452 16.778 66.3197 17.0969 65.7605 18.0495C65.2013 19.002 65.5202 20.2276 66.4728 20.7867L68.4978 17.3372ZM61.2585 17.7258C62.2111 18.285 63.4366 17.9661 63.9958 17.0135C64.555 16.061 64.2361 14.8355 63.2835 14.2763L61.2585 17.7258ZM58.0692 11.2154C57.1166 10.6562 55.8911 10.9751 55.3319 11.9277C54.7727 12.8802 55.0916 14.1057 56.0442 14.6649L58.0692 11.2154ZM50.8299 11.604C51.7825 12.1632 53.008 11.8443 53.5672 10.8917C54.1264 9.93915 53.8075 8.71363 52.8549 8.15445L50.8299 11.604ZM47.6406 5.09354C46.688 4.53436 45.4625 4.85327 44.9033 5.80584C44.3442 6.75841 44.6631 7.98392 45.6156 8.5431L47.6406 5.09354ZM40.4013 5.48219C41.3539 6.04138 42.5794 5.72247 43.1386 4.7699C43.6978 3.81733 43.3789 2.59181 42.4263 2.03263L40.4013 5.48219ZM37 38.6681V42.2038H41V38.6681H37ZM37 49.2752V56.3466H41V49.2752H37ZM37 63.4181V66.9538H41V63.4181H37ZM5 38.6681V41.0252H9V38.6681H5ZM5 45.7395V48.0966H9V45.7395H5ZM5.98462 49.8197L8.65128 51.3912L10.6821 47.945L8.01538 46.3736L5.98462 49.8197ZM13.9846 54.534L19.3179 57.6769L21.3487 54.2307L16.0154 51.0879L13.9846 54.534ZM24.6513 60.8197L29.9846 63.9626L32.0154 60.5164L26.6821 57.3736L24.6513 60.8197ZM35.3179 67.1054L37.9846 68.6769L40.0154 65.2307L37.3487 63.6593L35.3179 67.1054ZM39.9887 68.6923L42.6554 67.1757L40.6779 63.6987L38.0113 65.2153L39.9887 68.6923ZM47.9887 64.1425L53.3221 61.1094L51.3446 57.6323L46.0113 60.6655L47.9887 64.1425ZM58.6554 58.0762L63.9887 55.043L62.0113 51.566L56.6779 54.5992L58.6554 58.0762ZM69.3221 52.0098L71.9887 50.4933L70.0113 47.0162L67.3446 48.5328L69.3221 52.0098ZM72.9974 48.8571L73.1224 46.4184L69.1276 46.2137L69.0026 48.6524L72.9974 48.8571ZM73.3724 41.5411L73.4974 39.1024L69.5026 38.8976L69.3776 41.3363L73.3724 41.5411ZM5.09207 20.1729L3.85874 23.0811L7.54126 24.6428L8.7746 21.7347L5.09207 20.1729ZM1.39207 28.8974L0.158738 31.8056L3.84126 33.3673L5.0746 30.4591L1.39207 28.8974ZM0.991944 34.3138L4.75028 36.5071L6.76639 33.0523L3.00806 30.8591L0.991944 34.3138ZM12.2669 40.8936L19.7836 45.2802L21.7997 41.8254L14.2831 37.4389L12.2669 40.8936ZM27.3003 49.6667L31.0586 51.86L33.0747 48.4053L29.3164 46.212L27.3003 49.6667ZM33.8906 50.9531L34.749 49.0449L31.101 47.404L30.2427 49.3122L33.8906 50.9531ZM36.4656 45.2286L37.324 43.3204L33.676 41.6795L32.8177 43.5877L36.4656 45.2286ZM40.176 43.3204L41.0344 45.2286L44.6823 43.5877L43.824 41.6795L40.176 43.3204ZM42.751 49.0449L43.6094 50.9531L47.2573 49.3122L46.399 47.404L42.751 49.0449ZM46.4414 51.86L50.1997 49.6667L48.1836 46.212L44.4253 48.4053L46.4414 51.86ZM57.7164 45.2802L65.2331 40.8936L63.2169 37.4389L55.7003 41.8254L57.7164 45.2802ZM72.7497 36.5071L76.5081 34.3138L74.4919 30.8591L70.7336 33.0523L72.7497 36.5071ZM77.3413 31.8056L76.1079 28.8974L72.4254 30.4591L73.6587 33.3673L77.3413 31.8056ZM73.6413 23.0811L72.4079 20.1729L68.7254 21.7347L69.9587 24.6428L73.6413 23.0811ZM37.8088 0.493698L35.1505 2.02415L37.1463 5.49068L39.8046 3.96022L37.8088 0.493698ZM29.834 5.08507L24.5175 8.14598L26.5133 11.6125L31.8298 8.55159L29.834 5.08507ZM19.201 11.2069L13.8844 14.2678L15.8802 17.7343L21.1968 14.6734L19.201 11.2069ZM8.56791 17.3287L5.90965 18.8592L7.90545 22.3257L10.5637 20.7952L8.56791 17.3287ZM5.90965 22.3257L8.56791 23.8562L10.5637 20.3896L7.90545 18.8592L5.90965 22.3257ZM13.8844 26.9171L19.201 29.978L21.1968 26.5115L15.8802 23.4506L13.8844 26.9171ZM24.5175 33.0389L29.834 36.0998L31.8298 32.6333L26.5133 29.5724L24.5175 33.0389ZM35.1505 39.1607L37.8088 40.6912L39.8046 37.2247L37.1463 35.6942L35.1505 39.1607ZM39.8192 40.6827L42.4263 39.1523L40.4013 35.7027L37.7942 37.2332L39.8192 40.6827ZM47.6406 36.0913L52.8549 33.0304L50.8299 29.5809L45.6156 32.6418L47.6406 36.0913ZM58.0692 29.9695L63.2835 26.9086L61.2585 23.459L56.0442 26.5199L58.0692 29.9695ZM68.4978 23.8477L71.1049 22.3172L69.0799 18.8676L66.4728 20.3981L68.4978 23.8477ZM71.1049 18.8676L68.4978 17.3372L66.4728 20.7867L69.0799 22.3172L71.1049 18.8676ZM63.2835 14.2763L58.0692 11.2154L56.0442 14.6649L61.2585 17.7258L63.2835 14.2763ZM52.8549 8.15445L47.6406 5.09354L45.6156 8.5431L50.8299 11.604L52.8549 8.15445ZM42.4263 2.03263L39.8192 0.502178L37.7942 3.95174L40.4013 5.48219L42.4263 2.03263Z" fill="#B095FF"/>
</svg>
