<svg width="204" height="124" viewBox="0 0 204 124" fill="none" xmlns="http://www.w3.org/2000/svg">
<mask id="path-1-outside-1_674_652" maskUnits="userSpaceOnUse" x="0" y="0" width="204" height="115" fill="black">
<rect fill="white" width="204" height="115"/>
<path d="M57.5018 58.7521C58.2004 58.7521 58.7377 59.0743 59.1139 59.7186C59.5438 60.363 59.7587 61.249 59.7587 62.3767C59.7587 64.5246 59.2482 66.1892 58.2273 67.3706C55.9167 70.2166 53.418 72.5524 50.7313 74.3782C48.0983 76.2039 45.0892 77.1168 41.7039 77.1168C38.856 77.1168 36.5454 76.0965 34.7721 74.056C31.7093 76.0428 28.5121 77.0631 25.1805 77.1168C24.482 87.4804 22.8968 96.1258 20.425 103.053C17.9532 110.034 14.3262 113.524 9.54379 113.524C6.64212 113.524 4.49274 112.477 3.09565 110.383C1.69855 108.288 1 105.389 1 101.684C1 96.4211 2.20903 90.2727 4.62708 83.2383C7.04513 76.2576 10.7797 68.5519 15.8307 60.1214C15.8307 52.2815 15.777 46.8311 15.6695 43.7704C15.6158 42.2131 16.2337 40.9781 17.5234 40.0652C18.813 39.1523 20.425 38.6959 22.3595 38.6959C23.4879 38.6959 24.2939 38.9376 24.7775 39.4208C25.3149 39.8504 25.6104 40.7364 25.6641 42.0789C25.6641 43.4213 25.691 44.4147 25.7447 45.0591C27.4642 42.9112 29.1569 41.3808 30.8227 40.4679C32.4884 39.5014 34.2617 39.0181 36.1424 39.0181C39.1515 39.0181 41.5964 40.2263 43.4771 42.6427C45.4116 45.0591 46.3788 48.2273 46.3788 52.1472C46.3788 54.9932 45.9221 57.7587 45.0086 60.4436C44.0951 63.1285 42.8323 65.5717 41.2203 67.7733C42.3487 68.0955 43.2891 68.2566 44.0413 68.2566C45.8146 68.2566 47.5072 67.6122 49.1193 66.3235C50.7313 65.0347 52.8001 62.8868 55.3256 59.8797C55.9704 59.128 56.6958 58.7521 57.5018 58.7521ZM25.5835 69.3843C27.518 68.9547 29.2912 67.9076 30.9033 66.2429C32.569 64.5246 33.8855 62.4304 34.8527 59.9603C35.82 57.4365 36.3036 54.8053 36.3036 52.0667C36.3036 50.4558 35.9812 49.2475 35.3364 48.4421C34.6915 47.5829 33.8318 47.1533 32.7571 47.1533C30.8227 47.1533 28.4852 49.1939 25.7447 53.2749C25.691 55.6376 25.6641 59.1011 25.6641 63.6654C25.6641 66.1355 25.6373 68.0418 25.5835 69.3843ZM10.1886 105.63C11.6394 105.63 12.8485 102.462 13.8157 96.1258C14.7829 89.8431 15.4009 82.0033 15.6695 72.6061C13.3589 77.9759 11.532 83.1041 10.1886 87.9906C8.84524 92.8771 8.17356 96.985 8.17356 100.314C8.17356 102.033 8.3885 103.348 8.81837 104.261C9.19451 105.174 9.65126 105.63 10.1886 105.63Z"/>
<path d="M63.1799 77.1168C59.8483 77.1168 57.1885 75.9086 55.2003 73.4921C53.2121 71.0757 52.218 67.9076 52.218 63.9876C52.218 59.6918 53.2121 55.6376 55.2003 51.825C57.1885 47.9588 59.8215 44.8712 63.0993 42.5622C66.4308 40.1995 69.9504 39.0181 73.6581 39.0181C74.8403 39.0181 75.6194 39.2597 75.9955 39.743C76.4254 40.1726 76.7747 40.9781 77.0434 42.1594C78.1718 41.9446 79.3539 41.8372 80.5898 41.8372C83.2228 41.8372 84.5393 42.777 84.5393 44.6564C84.5393 45.784 84.1363 48.4689 83.3303 52.7111C82.0944 58.8863 81.4765 63.1822 81.4765 65.5986C81.4765 66.404 81.6645 67.0484 82.0407 67.5317C82.4705 68.015 83.0079 68.2566 83.6527 68.2566C84.6737 68.2566 85.9096 67.6122 87.3604 66.3235C88.8112 64.981 90.7725 62.8331 93.2443 59.8797C93.8891 59.128 94.6146 58.7521 95.4206 58.7521C96.1191 58.7521 96.6565 59.0743 97.0326 59.7186C97.4625 60.363 97.6774 61.249 97.6774 62.3767C97.6774 64.5246 97.1669 66.1892 96.146 67.3706C93.9429 70.1092 91.6054 72.4182 89.1336 74.2976C86.6618 76.177 84.2707 77.1168 81.9601 77.1168C80.1868 77.1168 78.5479 76.5261 77.0434 75.3447C75.5925 74.1097 74.491 72.445 73.7387 70.3508C70.9445 74.8614 67.4249 77.1168 63.1799 77.1168ZM66.0815 68.9815C67.2637 68.9815 68.3921 68.2835 69.4668 66.8873C70.5415 65.4912 71.3206 63.6386 71.8043 61.3296L74.7865 46.509C72.5297 46.5627 70.434 47.4218 68.4996 49.0865C66.6189 50.6974 65.1143 52.8453 63.9859 55.5302C62.8575 58.2151 62.2932 61.0611 62.2932 64.0682C62.2932 65.7328 62.6156 66.9679 63.2605 67.7733C63.959 68.5788 64.8994 68.9815 66.0815 68.9815Z"/>
<path d="M96.8494 77.1168C94.8075 77.1168 93.3566 76.0428 92.4969 73.8949C91.6908 71.747 91.2878 68.3103 91.2878 63.5849C91.2878 56.6042 92.2819 49.9725 94.2701 43.6898C94.7537 42.1326 95.5329 41.0049 96.6076 40.3069C97.736 39.5551 99.2943 39.1792 101.282 39.1792C102.357 39.1792 103.109 39.3134 103.539 39.5819C103.969 39.8504 104.184 40.3605 104.184 41.1123C104.184 41.9715 103.781 43.9046 102.975 46.9117C102.438 49.0596 102.008 50.939 101.685 52.55C101.363 54.1609 101.094 56.1477 100.879 58.5104C102.653 53.8924 104.641 50.1336 106.844 47.2339C109.047 44.3342 111.196 42.2668 113.292 41.0318C115.442 39.7967 117.403 39.1792 119.176 39.1792C122.669 39.1792 124.415 40.9244 124.415 44.4147C124.415 46.509 123.824 50.2947 122.642 55.7718C121.621 60.4436 121.11 63.5312 121.11 65.0347C121.11 67.1826 121.89 68.2566 123.448 68.2566C124.523 68.2566 125.785 67.6122 127.236 66.3235C128.741 64.981 130.729 62.8331 133.201 59.8797C133.846 59.128 134.571 58.7521 135.377 58.7521C136.076 58.7521 136.613 59.0743 136.989 59.7186C137.419 60.363 137.634 61.249 137.634 62.3767C137.634 64.5246 137.123 66.1892 136.102 67.3706C133.792 70.2166 131.293 72.5524 128.606 74.3782C125.973 76.2039 122.964 77.1168 119.579 77.1168C116.839 77.1168 114.77 76.3381 113.373 74.7809C111.976 73.17 111.277 70.8609 111.277 67.8539C111.277 66.3503 111.653 63.6654 112.406 59.7992C113.104 56.4162 113.453 54.0804 113.453 52.7916C113.453 51.9324 113.158 51.5029 112.567 51.5029C111.868 51.5029 110.874 52.4157 109.584 54.2415C108.349 56.0135 107.059 58.3762 105.716 61.3296C104.426 64.283 103.378 67.3974 102.572 70.673C101.981 73.1968 101.282 74.9151 100.476 75.828C99.7242 76.6872 98.5151 77.1168 96.8494 77.1168Z"/>
<path d="M176.894 58.7521C177.593 58.7521 178.13 59.0743 178.507 59.7186C178.936 60.363 179.151 61.249 179.151 62.3767C179.151 64.5246 178.641 66.1892 177.62 67.3706C175.417 70.0555 172.999 72.3645 170.366 74.2976C167.733 76.177 165.127 77.1168 162.547 77.1168C158.464 77.1168 155.347 74.7272 153.198 69.9481C150.941 72.7941 148.953 74.7003 147.233 75.6669C145.567 76.6335 143.606 77.1168 141.349 77.1168C138.071 77.1168 135.358 75.9086 133.208 73.4921C131.113 71.022 130.065 67.827 130.065 63.9071C130.065 59.6112 130.978 55.6376 132.805 51.9861C134.632 48.281 137.131 45.2739 140.301 42.9649C143.525 40.6022 147.126 39.206 151.102 38.7765C152.123 28.3591 154.057 19.4721 156.905 12.1155C159.807 4.70515 163.595 1 168.27 1C170.581 1 172.488 2.04711 173.993 4.14133C175.551 6.23554 176.33 9.40372 176.33 13.6459C176.33 19.66 174.853 26.6944 171.897 34.7491C168.942 42.8038 164.992 51.0733 160.049 59.5575C160.264 62.672 160.72 64.9005 161.419 66.2429C162.171 67.5854 163.112 68.2566 164.24 68.2566C165.691 68.2566 167.169 67.6122 168.673 66.3235C170.178 65.0347 172.193 62.8868 174.718 59.8797C175.363 59.128 176.088 58.7521 176.894 58.7521ZM167.383 8.89359C166.363 8.89359 165.342 10.7193 164.321 14.3708C163.3 17.9685 162.413 22.6939 161.661 28.547C160.962 34.4001 160.452 40.5216 160.129 46.9117C166.148 33.8094 169.157 23.2846 169.157 15.3373C169.157 13.2968 168.969 11.7127 168.592 10.5851C168.27 9.45742 167.867 8.89359 167.383 8.89359ZM144.17 68.9815C145.191 68.9815 146.212 68.5788 147.233 67.7733C148.254 66.9142 149.544 65.3569 151.102 63.1016C150.565 60.2019 150.296 56.9532 150.296 53.3554C150.296 52.0667 150.35 49.9725 150.457 47.0728C147.502 47.9856 145.03 49.9725 143.042 53.0333C141.107 56.0403 140.14 59.3964 140.14 63.1016C140.14 67.0215 141.483 68.9815 144.17 68.9815Z"/>
<path d="M181.076 77.1168C178.013 77.1168 175.515 75.9086 173.58 73.4921C171.7 71.0757 170.759 67.9076 170.759 63.9876C170.759 59.6918 171.753 55.6376 173.742 51.825C175.73 47.9588 178.363 44.8712 181.641 42.5622C184.972 40.1995 188.492 39.0181 192.199 39.0181C193.382 39.0181 194.161 39.2597 194.537 39.743C194.967 40.1726 195.316 40.9781 195.585 42.1594C196.606 41.9446 197.734 41.8372 198.97 41.8372C200.26 41.8372 201.254 42.1594 201.952 42.8038C202.651 43.4482 203 44.361 203 45.5424C203 46.7774 202.731 48.9254 202.194 51.9861C201.603 55.2617 201.146 58.403 200.824 61.4101C200.501 64.3635 200.34 67.6928 200.34 71.3979C200.34 73.4384 199.91 74.9151 199.051 75.828C198.245 76.6872 196.901 77.1168 195.02 77.1168C193.193 77.1168 191.823 76.6872 190.91 75.828C190.05 74.9151 189.62 73.4653 189.62 71.4785L189.701 70.1897C188.035 74.8077 185.16 77.1168 181.076 77.1168ZM184.22 68.9815C185.724 68.9815 187.095 67.9344 188.33 65.8402C189.566 63.746 190.668 60.014 191.635 54.6442L193.167 46.509C190.963 46.5627 188.922 47.4218 187.041 49.0865C185.16 50.6974 183.656 52.8453 182.527 55.5302C181.399 58.2151 180.835 61.0611 180.835 64.0682C180.835 65.6791 181.13 66.9142 181.721 67.7733C182.366 68.5788 183.199 68.9815 184.22 68.9815Z"/>
</mask>
<path d="M57.5018 58.7521C58.2004 58.7521 58.7377 59.0743 59.1139 59.7186C59.5438 60.363 59.7587 61.249 59.7587 62.3767C59.7587 64.5246 59.2482 66.1892 58.2273 67.3706C55.9167 70.2166 53.418 72.5524 50.7313 74.3782C48.0983 76.2039 45.0892 77.1168 41.7039 77.1168C38.856 77.1168 36.5454 76.0965 34.7721 74.056C31.7093 76.0428 28.5121 77.0631 25.1805 77.1168C24.482 87.4804 22.8968 96.1258 20.425 103.053C17.9532 110.034 14.3262 113.524 9.54379 113.524C6.64212 113.524 4.49274 112.477 3.09565 110.383C1.69855 108.288 1 105.389 1 101.684C1 96.4211 2.20903 90.2727 4.62708 83.2383C7.04513 76.2576 10.7797 68.5519 15.8307 60.1214C15.8307 52.2815 15.777 46.8311 15.6695 43.7704C15.6158 42.2131 16.2337 40.9781 17.5234 40.0652C18.813 39.1523 20.425 38.6959 22.3595 38.6959C23.4879 38.6959 24.2939 38.9376 24.7775 39.4208C25.3149 39.8504 25.6104 40.7364 25.6641 42.0789C25.6641 43.4213 25.691 44.4147 25.7447 45.0591C27.4642 42.9112 29.1569 41.3808 30.8227 40.4679C32.4884 39.5014 34.2617 39.0181 36.1424 39.0181C39.1515 39.0181 41.5964 40.2263 43.4771 42.6427C45.4116 45.0591 46.3788 48.2273 46.3788 52.1472C46.3788 54.9932 45.9221 57.7587 45.0086 60.4436C44.0951 63.1285 42.8323 65.5717 41.2203 67.7733C42.3487 68.0955 43.2891 68.2566 44.0413 68.2566C45.8146 68.2566 47.5072 67.6122 49.1193 66.3235C50.7313 65.0347 52.8001 62.8868 55.3256 59.8797C55.9704 59.128 56.6958 58.7521 57.5018 58.7521ZM25.5835 69.3843C27.518 68.9547 29.2912 67.9076 30.9033 66.2429C32.569 64.5246 33.8855 62.4304 34.8527 59.9603C35.82 57.4365 36.3036 54.8053 36.3036 52.0667C36.3036 50.4558 35.9812 49.2475 35.3364 48.4421C34.6915 47.5829 33.8318 47.1533 32.7571 47.1533C30.8227 47.1533 28.4852 49.1939 25.7447 53.2749C25.691 55.6376 25.6641 59.1011 25.6641 63.6654C25.6641 66.1355 25.6373 68.0418 25.5835 69.3843ZM10.1886 105.63C11.6394 105.63 12.8485 102.462 13.8157 96.1258C14.7829 89.8431 15.4009 82.0033 15.6695 72.6061C13.3589 77.9759 11.532 83.1041 10.1886 87.9906C8.84524 92.8771 8.17356 96.985 8.17356 100.314C8.17356 102.033 8.3885 103.348 8.81837 104.261C9.19451 105.174 9.65126 105.63 10.1886 105.63Z" fill="#373847"/>
<path d="M63.1799 77.1168C59.8483 77.1168 57.1885 75.9086 55.2003 73.4921C53.2121 71.0757 52.218 67.9076 52.218 63.9876C52.218 59.6918 53.2121 55.6376 55.2003 51.825C57.1885 47.9588 59.8215 44.8712 63.0993 42.5622C66.4308 40.1995 69.9504 39.0181 73.6581 39.0181C74.8403 39.0181 75.6194 39.2597 75.9955 39.743C76.4254 40.1726 76.7747 40.9781 77.0434 42.1594C78.1718 41.9446 79.3539 41.8372 80.5898 41.8372C83.2228 41.8372 84.5393 42.777 84.5393 44.6564C84.5393 45.784 84.1363 48.4689 83.3303 52.7111C82.0944 58.8863 81.4765 63.1822 81.4765 65.5986C81.4765 66.404 81.6645 67.0484 82.0407 67.5317C82.4705 68.015 83.0079 68.2566 83.6527 68.2566C84.6737 68.2566 85.9096 67.6122 87.3604 66.3235C88.8112 64.981 90.7725 62.8331 93.2443 59.8797C93.8891 59.128 94.6146 58.7521 95.4206 58.7521C96.1191 58.7521 96.6565 59.0743 97.0326 59.7186C97.4625 60.363 97.6774 61.249 97.6774 62.3767C97.6774 64.5246 97.1669 66.1892 96.146 67.3706C93.9429 70.1092 91.6054 72.4182 89.1336 74.2976C86.6618 76.177 84.2707 77.1168 81.9601 77.1168C80.1868 77.1168 78.5479 76.5261 77.0434 75.3447C75.5925 74.1097 74.491 72.445 73.7387 70.3508C70.9445 74.8614 67.4249 77.1168 63.1799 77.1168ZM66.0815 68.9815C67.2637 68.9815 68.3921 68.2835 69.4668 66.8873C70.5415 65.4912 71.3206 63.6386 71.8043 61.3296L74.7865 46.509C72.5297 46.5627 70.434 47.4218 68.4996 49.0865C66.6189 50.6974 65.1143 52.8453 63.9859 55.5302C62.8575 58.2151 62.2932 61.0611 62.2932 64.0682C62.2932 65.7328 62.6156 66.9679 63.2605 67.7733C63.959 68.5788 64.8994 68.9815 66.0815 68.9815Z" fill="#373847"/>
<path d="M96.8494 77.1168C94.8075 77.1168 93.3566 76.0428 92.4969 73.8949C91.6908 71.747 91.2878 68.3103 91.2878 63.5849C91.2878 56.6042 92.2819 49.9725 94.2701 43.6898C94.7537 42.1326 95.5329 41.0049 96.6076 40.3069C97.736 39.5551 99.2943 39.1792 101.282 39.1792C102.357 39.1792 103.109 39.3134 103.539 39.5819C103.969 39.8504 104.184 40.3605 104.184 41.1123C104.184 41.9715 103.781 43.9046 102.975 46.9117C102.438 49.0596 102.008 50.939 101.685 52.55C101.363 54.1609 101.094 56.1477 100.879 58.5104C102.653 53.8924 104.641 50.1336 106.844 47.2339C109.047 44.3342 111.196 42.2668 113.292 41.0318C115.442 39.7967 117.403 39.1792 119.176 39.1792C122.669 39.1792 124.415 40.9244 124.415 44.4147C124.415 46.509 123.824 50.2947 122.642 55.7718C121.621 60.4436 121.11 63.5312 121.11 65.0347C121.11 67.1826 121.89 68.2566 123.448 68.2566C124.523 68.2566 125.785 67.6122 127.236 66.3235C128.741 64.981 130.729 62.8331 133.201 59.8797C133.846 59.128 134.571 58.7521 135.377 58.7521C136.076 58.7521 136.613 59.0743 136.989 59.7186C137.419 60.363 137.634 61.249 137.634 62.3767C137.634 64.5246 137.123 66.1892 136.102 67.3706C133.792 70.2166 131.293 72.5524 128.606 74.3782C125.973 76.2039 122.964 77.1168 119.579 77.1168C116.839 77.1168 114.77 76.3381 113.373 74.7809C111.976 73.17 111.277 70.8609 111.277 67.8539C111.277 66.3503 111.653 63.6654 112.406 59.7992C113.104 56.4162 113.453 54.0804 113.453 52.7916C113.453 51.9324 113.158 51.5029 112.567 51.5029C111.868 51.5029 110.874 52.4157 109.584 54.2415C108.349 56.0135 107.059 58.3762 105.716 61.3296C104.426 64.283 103.378 67.3974 102.572 70.673C101.981 73.1968 101.282 74.9151 100.476 75.828C99.7242 76.6872 98.5151 77.1168 96.8494 77.1168Z" fill="#373847"/>
<path d="M176.894 58.7521C177.593 58.7521 178.13 59.0743 178.507 59.7186C178.936 60.363 179.151 61.249 179.151 62.3767C179.151 64.5246 178.641 66.1892 177.62 67.3706C175.417 70.0555 172.999 72.3645 170.366 74.2976C167.733 76.177 165.127 77.1168 162.547 77.1168C158.464 77.1168 155.347 74.7272 153.198 69.9481C150.941 72.7941 148.953 74.7003 147.233 75.6669C145.567 76.6335 143.606 77.1168 141.349 77.1168C138.071 77.1168 135.358 75.9086 133.208 73.4921C131.113 71.022 130.065 67.827 130.065 63.9071C130.065 59.6112 130.978 55.6376 132.805 51.9861C134.632 48.281 137.131 45.2739 140.301 42.9649C143.525 40.6022 147.126 39.206 151.102 38.7765C152.123 28.3591 154.057 19.4721 156.905 12.1155C159.807 4.70515 163.595 1 168.27 1C170.581 1 172.488 2.04711 173.993 4.14133C175.551 6.23554 176.33 9.40372 176.33 13.6459C176.33 19.66 174.853 26.6944 171.897 34.7491C168.942 42.8038 164.992 51.0733 160.049 59.5575C160.264 62.672 160.72 64.9005 161.419 66.2429C162.171 67.5854 163.112 68.2566 164.24 68.2566C165.691 68.2566 167.169 67.6122 168.673 66.3235C170.178 65.0347 172.193 62.8868 174.718 59.8797C175.363 59.128 176.088 58.7521 176.894 58.7521ZM167.383 8.89359C166.363 8.89359 165.342 10.7193 164.321 14.3708C163.3 17.9685 162.413 22.6939 161.661 28.547C160.962 34.4001 160.452 40.5216 160.129 46.9117C166.148 33.8094 169.157 23.2846 169.157 15.3373C169.157 13.2968 168.969 11.7127 168.592 10.5851C168.27 9.45742 167.867 8.89359 167.383 8.89359ZM144.17 68.9815C145.191 68.9815 146.212 68.5788 147.233 67.7733C148.254 66.9142 149.544 65.3569 151.102 63.1016C150.565 60.2019 150.296 56.9532 150.296 53.3554C150.296 52.0667 150.35 49.9725 150.457 47.0728C147.502 47.9856 145.03 49.9725 143.042 53.0333C141.107 56.0403 140.14 59.3964 140.14 63.1016C140.14 67.0215 141.483 68.9815 144.17 68.9815Z" fill="#373847"/>
<path d="M181.076 77.1168C178.013 77.1168 175.515 75.9086 173.58 73.4921C171.7 71.0757 170.759 67.9076 170.759 63.9876C170.759 59.6918 171.753 55.6376 173.742 51.825C175.73 47.9588 178.363 44.8712 181.641 42.5622C184.972 40.1995 188.492 39.0181 192.199 39.0181C193.382 39.0181 194.161 39.2597 194.537 39.743C194.967 40.1726 195.316 40.9781 195.585 42.1594C196.606 41.9446 197.734 41.8372 198.97 41.8372C200.26 41.8372 201.254 42.1594 201.952 42.8038C202.651 43.4482 203 44.361 203 45.5424C203 46.7774 202.731 48.9254 202.194 51.9861C201.603 55.2617 201.146 58.403 200.824 61.4101C200.501 64.3635 200.34 67.6928 200.34 71.3979C200.34 73.4384 199.91 74.9151 199.051 75.828C198.245 76.6872 196.901 77.1168 195.02 77.1168C193.193 77.1168 191.823 76.6872 190.91 75.828C190.05 74.9151 189.62 73.4653 189.62 71.4785L189.701 70.1897C188.035 74.8077 185.16 77.1168 181.076 77.1168ZM184.22 68.9815C185.724 68.9815 187.095 67.9344 188.33 65.8402C189.566 63.746 190.668 60.014 191.635 54.6442L193.167 46.509C190.963 46.5627 188.922 47.4218 187.041 49.0865C185.16 50.6974 183.656 52.8453 182.527 55.5302C181.399 58.2151 180.835 61.0611 180.835 64.0682C180.835 65.6791 181.13 66.9142 181.721 67.7733C182.366 68.5788 183.199 68.9815 184.22 68.9815Z" fill="#373847"/>
<path d="M57.5018 58.7521C58.2004 58.7521 58.7377 59.0743 59.1139 59.7186C59.5438 60.363 59.7587 61.249 59.7587 62.3767C59.7587 64.5246 59.2482 66.1892 58.2273 67.3706C55.9167 70.2166 53.418 72.5524 50.7313 74.3782C48.0983 76.2039 45.0892 77.1168 41.7039 77.1168C38.856 77.1168 36.5454 76.0965 34.7721 74.056C31.7093 76.0428 28.5121 77.0631 25.1805 77.1168C24.482 87.4804 22.8968 96.1258 20.425 103.053C17.9532 110.034 14.3262 113.524 9.54379 113.524C6.64212 113.524 4.49274 112.477 3.09565 110.383C1.69855 108.288 1 105.389 1 101.684C1 96.4211 2.20903 90.2727 4.62708 83.2383C7.04513 76.2576 10.7797 68.5519 15.8307 60.1214C15.8307 52.2815 15.777 46.8311 15.6695 43.7704C15.6158 42.2131 16.2337 40.9781 17.5234 40.0652C18.813 39.1523 20.425 38.6959 22.3595 38.6959C23.4879 38.6959 24.2939 38.9376 24.7775 39.4208C25.3149 39.8504 25.6104 40.7364 25.6641 42.0789C25.6641 43.4213 25.691 44.4147 25.7447 45.0591C27.4642 42.9112 29.1569 41.3808 30.8227 40.4679C32.4884 39.5014 34.2617 39.0181 36.1424 39.0181C39.1515 39.0181 41.5964 40.2263 43.4771 42.6427C45.4116 45.0591 46.3788 48.2273 46.3788 52.1472C46.3788 54.9932 45.9221 57.7587 45.0086 60.4436C44.0951 63.1285 42.8323 65.5717 41.2203 67.7733C42.3487 68.0955 43.2891 68.2566 44.0413 68.2566C45.8146 68.2566 47.5072 67.6122 49.1193 66.3235C50.7313 65.0347 52.8001 62.8868 55.3256 59.8797C55.9704 59.128 56.6958 58.7521 57.5018 58.7521ZM25.5835 69.3843C27.518 68.9547 29.2912 67.9076 30.9033 66.2429C32.569 64.5246 33.8855 62.4304 34.8527 59.9603C35.82 57.4365 36.3036 54.8053 36.3036 52.0667C36.3036 50.4558 35.9812 49.2475 35.3364 48.4421C34.6915 47.5829 33.8318 47.1533 32.7571 47.1533C30.8227 47.1533 28.4852 49.1939 25.7447 53.2749C25.691 55.6376 25.6641 59.1011 25.6641 63.6654C25.6641 66.1355 25.6373 68.0418 25.5835 69.3843ZM10.1886 105.63C11.6394 105.63 12.8485 102.462 13.8157 96.1258C14.7829 89.8431 15.4009 82.0033 15.6695 72.6061C13.3589 77.9759 11.532 83.1041 10.1886 87.9906C8.84524 92.8771 8.17356 96.985 8.17356 100.314C8.17356 102.033 8.3885 103.348 8.81837 104.261C9.19451 105.174 9.65126 105.63 10.1886 105.63Z" stroke="#D1F090" stroke-width="2" mask="url(#path-1-outside-1_674_652)"/>
<path d="M63.1799 77.1168C59.8483 77.1168 57.1885 75.9086 55.2003 73.4921C53.2121 71.0757 52.218 67.9076 52.218 63.9876C52.218 59.6918 53.2121 55.6376 55.2003 51.825C57.1885 47.9588 59.8215 44.8712 63.0993 42.5622C66.4308 40.1995 69.9504 39.0181 73.6581 39.0181C74.8403 39.0181 75.6194 39.2597 75.9955 39.743C76.4254 40.1726 76.7747 40.9781 77.0434 42.1594C78.1718 41.9446 79.3539 41.8372 80.5898 41.8372C83.2228 41.8372 84.5393 42.777 84.5393 44.6564C84.5393 45.784 84.1363 48.4689 83.3303 52.7111C82.0944 58.8863 81.4765 63.1822 81.4765 65.5986C81.4765 66.404 81.6645 67.0484 82.0407 67.5317C82.4705 68.015 83.0079 68.2566 83.6527 68.2566C84.6737 68.2566 85.9096 67.6122 87.3604 66.3235C88.8112 64.981 90.7725 62.8331 93.2443 59.8797C93.8891 59.128 94.6146 58.7521 95.4206 58.7521C96.1191 58.7521 96.6565 59.0743 97.0326 59.7186C97.4625 60.363 97.6774 61.249 97.6774 62.3767C97.6774 64.5246 97.1669 66.1892 96.146 67.3706C93.9429 70.1092 91.6054 72.4182 89.1336 74.2976C86.6618 76.177 84.2707 77.1168 81.9601 77.1168C80.1868 77.1168 78.5479 76.5261 77.0434 75.3447C75.5925 74.1097 74.491 72.445 73.7387 70.3508C70.9445 74.8614 67.4249 77.1168 63.1799 77.1168ZM66.0815 68.9815C67.2637 68.9815 68.3921 68.2835 69.4668 66.8873C70.5415 65.4912 71.3206 63.6386 71.8043 61.3296L74.7865 46.509C72.5297 46.5627 70.434 47.4218 68.4996 49.0865C66.6189 50.6974 65.1143 52.8453 63.9859 55.5302C62.8575 58.2151 62.2932 61.0611 62.2932 64.0682C62.2932 65.7328 62.6156 66.9679 63.2605 67.7733C63.959 68.5788 64.8994 68.9815 66.0815 68.9815Z" stroke="#D1F090" stroke-width="2" mask="url(#path-1-outside-1_674_652)"/>
<path d="M96.8494 77.1168C94.8075 77.1168 93.3566 76.0428 92.4969 73.8949C91.6908 71.747 91.2878 68.3103 91.2878 63.5849C91.2878 56.6042 92.2819 49.9725 94.2701 43.6898C94.7537 42.1326 95.5329 41.0049 96.6076 40.3069C97.736 39.5551 99.2943 39.1792 101.282 39.1792C102.357 39.1792 103.109 39.3134 103.539 39.5819C103.969 39.8504 104.184 40.3605 104.184 41.1123C104.184 41.9715 103.781 43.9046 102.975 46.9117C102.438 49.0596 102.008 50.939 101.685 52.55C101.363 54.1609 101.094 56.1477 100.879 58.5104C102.653 53.8924 104.641 50.1336 106.844 47.2339C109.047 44.3342 111.196 42.2668 113.292 41.0318C115.442 39.7967 117.403 39.1792 119.176 39.1792C122.669 39.1792 124.415 40.9244 124.415 44.4147C124.415 46.509 123.824 50.2947 122.642 55.7718C121.621 60.4436 121.11 63.5312 121.11 65.0347C121.11 67.1826 121.89 68.2566 123.448 68.2566C124.523 68.2566 125.785 67.6122 127.236 66.3235C128.741 64.981 130.729 62.8331 133.201 59.8797C133.846 59.128 134.571 58.7521 135.377 58.7521C136.076 58.7521 136.613 59.0743 136.989 59.7186C137.419 60.363 137.634 61.249 137.634 62.3767C137.634 64.5246 137.123 66.1892 136.102 67.3706C133.792 70.2166 131.293 72.5524 128.606 74.3782C125.973 76.2039 122.964 77.1168 119.579 77.1168C116.839 77.1168 114.77 76.3381 113.373 74.7809C111.976 73.17 111.277 70.8609 111.277 67.8539C111.277 66.3503 111.653 63.6654 112.406 59.7992C113.104 56.4162 113.453 54.0804 113.453 52.7916C113.453 51.9324 113.158 51.5029 112.567 51.5029C111.868 51.5029 110.874 52.4157 109.584 54.2415C108.349 56.0135 107.059 58.3762 105.716 61.3296C104.426 64.283 103.378 67.3974 102.572 70.673C101.981 73.1968 101.282 74.9151 100.476 75.828C99.7242 76.6872 98.5151 77.1168 96.8494 77.1168Z" stroke="#D1F090" stroke-width="2" mask="url(#path-1-outside-1_674_652)"/>
<path d="M176.894 58.7521C177.593 58.7521 178.13 59.0743 178.507 59.7186C178.936 60.363 179.151 61.249 179.151 62.3767C179.151 64.5246 178.641 66.1892 177.62 67.3706C175.417 70.0555 172.999 72.3645 170.366 74.2976C167.733 76.177 165.127 77.1168 162.547 77.1168C158.464 77.1168 155.347 74.7272 153.198 69.9481C150.941 72.7941 148.953 74.7003 147.233 75.6669C145.567 76.6335 143.606 77.1168 141.349 77.1168C138.071 77.1168 135.358 75.9086 133.208 73.4921C131.113 71.022 130.065 67.827 130.065 63.9071C130.065 59.6112 130.978 55.6376 132.805 51.9861C134.632 48.281 137.131 45.2739 140.301 42.9649C143.525 40.6022 147.126 39.206 151.102 38.7765C152.123 28.3591 154.057 19.4721 156.905 12.1155C159.807 4.70515 163.595 1 168.27 1C170.581 1 172.488 2.04711 173.993 4.14133C175.551 6.23554 176.33 9.40372 176.33 13.6459C176.33 19.66 174.853 26.6944 171.897 34.7491C168.942 42.8038 164.992 51.0733 160.049 59.5575C160.264 62.672 160.72 64.9005 161.419 66.2429C162.171 67.5854 163.112 68.2566 164.24 68.2566C165.691 68.2566 167.169 67.6122 168.673 66.3235C170.178 65.0347 172.193 62.8868 174.718 59.8797C175.363 59.128 176.088 58.7521 176.894 58.7521ZM167.383 8.89359C166.363 8.89359 165.342 10.7193 164.321 14.3708C163.3 17.9685 162.413 22.6939 161.661 28.547C160.962 34.4001 160.452 40.5216 160.129 46.9117C166.148 33.8094 169.157 23.2846 169.157 15.3373C169.157 13.2968 168.969 11.7127 168.592 10.5851C168.27 9.45742 167.867 8.89359 167.383 8.89359ZM144.17 68.9815C145.191 68.9815 146.212 68.5788 147.233 67.7733C148.254 66.9142 149.544 65.3569 151.102 63.1016C150.565 60.2019 150.296 56.9532 150.296 53.3554C150.296 52.0667 150.35 49.9725 150.457 47.0728C147.502 47.9856 145.03 49.9725 143.042 53.0333C141.107 56.0403 140.14 59.3964 140.14 63.1016C140.14 67.0215 141.483 68.9815 144.17 68.9815Z" stroke="#D1F090" stroke-width="2" mask="url(#path-1-outside-1_674_652)"/>
<path d="M181.076 77.1168C178.013 77.1168 175.515 75.9086 173.58 73.4921C171.7 71.0757 170.759 67.9076 170.759 63.9876C170.759 59.6918 171.753 55.6376 173.742 51.825C175.73 47.9588 178.363 44.8712 181.641 42.5622C184.972 40.1995 188.492 39.0181 192.199 39.0181C193.382 39.0181 194.161 39.2597 194.537 39.743C194.967 40.1726 195.316 40.9781 195.585 42.1594C196.606 41.9446 197.734 41.8372 198.97 41.8372C200.26 41.8372 201.254 42.1594 201.952 42.8038C202.651 43.4482 203 44.361 203 45.5424C203 46.7774 202.731 48.9254 202.194 51.9861C201.603 55.2617 201.146 58.403 200.824 61.4101C200.501 64.3635 200.34 67.6928 200.34 71.3979C200.34 73.4384 199.91 74.9151 199.051 75.828C198.245 76.6872 196.901 77.1168 195.02 77.1168C193.193 77.1168 191.823 76.6872 190.91 75.828C190.05 74.9151 189.62 73.4653 189.62 71.4785L189.701 70.1897C188.035 74.8077 185.16 77.1168 181.076 77.1168ZM184.22 68.9815C185.724 68.9815 187.095 67.9344 188.33 65.8402C189.566 63.746 190.668 60.014 191.635 54.6442L193.167 46.509C190.963 46.5627 188.922 47.4218 187.041 49.0865C185.16 50.6974 183.656 52.8453 182.527 55.5302C181.399 58.2151 180.835 61.0611 180.835 64.0682C180.835 65.6791 181.13 66.9142 181.721 67.7733C182.366 68.5788 183.199 68.9815 184.22 68.9815Z" stroke="#D1F090" stroke-width="2" mask="url(#path-1-outside-1_674_652)"/>
<mask id="path-2-outside-2_674_652" maskUnits="userSpaceOnUse" x="0" y="4.73804" width="204" height="115" fill="black">
<rect fill="white" y="4.73804" width="204" height="115"/>
<path d="M57.5018 63.4901C58.2004 63.4901 58.7377 63.8123 59.1139 64.4567C59.5438 65.101 59.7587 65.9871 59.7587 67.1147C59.7587 69.2626 59.2482 70.9273 58.2273 72.1086C55.9167 74.9546 53.418 77.2905 50.7313 79.1162C48.0983 80.9419 45.0892 81.8548 41.7039 81.8548C38.856 81.8548 36.5454 80.8345 34.7721 78.794C31.7093 80.7808 28.5121 81.8011 25.1805 81.8548C24.482 92.2185 22.8968 100.864 20.425 107.791C17.9532 114.772 14.3262 118.262 9.54379 118.262C6.64212 118.262 4.49274 117.215 3.09565 115.121C1.69855 113.026 1 110.127 1 106.422C1 101.159 2.20903 95.0108 4.62708 87.9763C7.04513 80.9956 10.7797 73.29 15.8307 64.8594C15.8307 57.0195 15.777 51.5692 15.6695 48.5084C15.6158 46.9512 16.2337 45.7161 17.5234 44.8032C18.813 43.8904 20.425 43.434 22.3595 43.434C23.4879 43.434 24.2939 43.6756 24.7775 44.1589C25.3149 44.5885 25.6104 45.4745 25.6641 46.8169C25.6641 48.1594 25.691 49.1528 25.7447 49.7972C27.4642 47.6492 29.1569 46.1188 30.8227 45.206C32.4884 44.2394 34.2617 43.7561 36.1424 43.7561C39.1515 43.7561 41.5964 44.9643 43.4771 47.3807C45.4116 49.7972 46.3788 52.9653 46.3788 56.8853C46.3788 59.7313 45.9221 62.4967 45.0086 65.1816C44.0951 67.8665 42.8323 70.3097 41.2203 72.5114C42.3487 72.8335 43.2891 72.9946 44.0413 72.9946C45.8146 72.9946 47.5072 72.3503 49.1193 71.0615C50.7313 69.7728 52.8001 67.6249 55.3256 64.6178C55.9704 63.866 56.6958 63.4901 57.5018 63.4901ZM25.5835 74.1223C27.518 73.6927 29.2912 72.6456 30.9033 70.981C32.569 69.2626 33.8855 67.1684 34.8527 64.6983C35.82 62.1745 36.3036 59.5433 36.3036 56.8047C36.3036 55.1938 35.9812 53.9856 35.3364 53.1801C34.6915 52.321 33.8318 51.8914 32.7571 51.8914C30.8227 51.8914 28.4852 53.9319 25.7447 58.0129C25.691 60.3756 25.6641 63.8391 25.6641 68.4035C25.6641 70.8736 25.6373 72.7798 25.5835 74.1223ZM10.1886 110.368C11.6394 110.368 12.8485 107.2 13.8157 100.864C14.7829 94.5812 15.4009 86.7413 15.6695 77.3442C13.3589 82.714 11.532 87.8421 10.1886 92.7286C8.84524 97.6151 8.17356 101.723 8.17356 105.052C8.17356 106.771 8.3885 108.086 8.81837 108.999C9.19451 109.912 9.65126 110.368 10.1886 110.368Z"/>
<path d="M63.1799 81.8548C59.8483 81.8548 57.1885 80.6466 55.2003 78.2302C53.2121 75.8138 52.218 72.6456 52.218 68.7257C52.218 64.4298 53.2121 60.3756 55.2003 56.5631C57.1885 52.6968 59.8215 49.6092 63.0993 47.3002C66.4308 44.9375 69.9504 43.7561 73.6581 43.7561C74.8403 43.7561 75.6194 43.9978 75.9955 44.4811C76.4254 44.9106 76.7747 45.7161 77.0434 46.8975C78.1718 46.6827 79.3539 46.5753 80.5898 46.5753C83.2228 46.5753 84.5393 47.515 84.5393 49.3944C84.5393 50.5221 84.1363 53.207 83.3303 57.4491C82.0944 63.6244 81.4765 67.9202 81.4765 70.3366C81.4765 71.1421 81.6645 71.7864 82.0407 72.2697C82.4705 72.753 83.0079 72.9946 83.6527 72.9946C84.6737 72.9946 85.9096 72.3503 87.3604 71.0615C88.8112 69.7191 90.7725 67.5712 93.2443 64.6178C93.8891 63.866 94.6146 63.4901 95.4206 63.4901C96.1191 63.4901 96.6565 63.8123 97.0326 64.4567C97.4625 65.101 97.6774 65.9871 97.6774 67.1147C97.6774 69.2626 97.1669 70.9273 96.146 72.1086C93.9429 74.8472 91.6054 77.1562 89.1336 79.0357C86.6618 80.9151 84.2707 81.8548 81.9601 81.8548C80.1868 81.8548 78.5479 81.2641 77.0434 80.0828C75.5925 78.8477 74.491 77.1831 73.7387 75.0889C70.9445 79.5995 67.4249 81.8548 63.1799 81.8548ZM66.0815 73.7196C67.2637 73.7196 68.3921 73.0215 69.4668 71.6253C70.5415 70.2292 71.3206 68.3766 71.8043 66.0676L74.7865 51.247C72.5297 51.3007 70.434 52.1599 68.4996 53.8245C66.6189 55.4354 65.1143 57.5833 63.9859 60.2682C62.8575 62.9531 62.2932 65.7991 62.2932 68.8062C62.2932 70.4708 62.6156 71.7059 63.2605 72.5114C63.959 73.3168 64.8994 73.7196 66.0815 73.7196Z"/>
<path d="M96.8494 81.8548C94.8075 81.8548 93.3566 80.7808 92.4969 78.6329C91.6908 76.485 91.2878 73.0483 91.2878 68.3229C91.2878 61.3422 92.2819 54.7105 94.2701 48.4279C94.7537 46.8706 95.5329 45.743 96.6076 45.0449C97.736 44.2931 99.2943 43.9172 101.282 43.9172C102.357 43.9172 103.109 44.0515 103.539 44.32C103.969 44.5885 104.184 45.0986 104.184 45.8504C104.184 46.7095 103.781 48.6426 102.975 51.6497C102.438 53.7976 102.008 55.6771 101.685 57.288C101.363 58.8989 101.094 60.8858 100.879 63.2485C102.653 58.6305 104.641 54.8716 106.844 51.9719C109.047 49.0722 111.196 47.0049 113.292 45.7698C115.442 44.5348 117.403 43.9172 119.176 43.9172C122.669 43.9172 124.415 45.6624 124.415 49.1528C124.415 51.247 123.824 55.0327 122.642 60.5099C121.621 65.1816 121.11 68.2692 121.11 69.7728C121.11 71.9207 121.89 72.9946 123.448 72.9946C124.523 72.9946 125.785 72.3503 127.236 71.0615C128.741 69.7191 130.729 67.5712 133.201 64.6178C133.846 63.866 134.571 63.4901 135.377 63.4901C136.076 63.4901 136.613 63.8123 136.989 64.4567C137.419 65.101 137.634 65.9871 137.634 67.1147C137.634 69.2626 137.123 70.9273 136.102 72.1086C133.792 74.9546 131.293 77.2905 128.606 79.1162C125.973 80.9419 122.964 81.8548 119.579 81.8548C116.839 81.8548 114.77 81.0762 113.373 79.5189C111.976 77.908 111.277 75.599 111.277 72.5919C111.277 71.0884 111.653 68.4035 112.406 64.5372C113.104 61.1543 113.453 58.8184 113.453 57.5296C113.453 56.6705 113.158 56.2409 112.567 56.2409C111.868 56.2409 110.874 57.1538 109.584 58.9795C108.349 60.7515 107.059 63.1142 105.716 66.0676C104.426 69.021 103.378 72.1355 102.572 75.411C101.981 77.9348 101.282 79.6532 100.476 80.566C99.7242 81.4252 98.5151 81.8548 96.8494 81.8548Z"/>
<path d="M176.894 63.4901C177.593 63.4901 178.13 63.8123 178.507 64.4567C178.936 65.101 179.151 65.9871 179.151 67.1147C179.151 69.2626 178.641 70.9273 177.62 72.1086C175.417 74.7935 172.999 77.1025 170.366 79.0357C167.733 80.9151 165.127 81.8548 162.547 81.8548C158.464 81.8548 155.347 79.4652 153.198 74.6861C150.941 77.5321 148.953 79.4384 147.233 80.4049C145.567 81.3715 143.606 81.8548 141.349 81.8548C138.071 81.8548 135.358 80.6466 133.208 78.2302C131.113 75.7601 130.065 72.5651 130.065 68.6451C130.065 64.3493 130.978 60.3756 132.805 56.7242C134.632 53.019 137.131 50.0119 140.301 47.7029C143.525 45.3402 147.126 43.9441 151.102 43.5145C152.123 33.0971 154.057 24.2101 156.905 16.8535C159.807 9.44319 163.595 5.73804 168.27 5.73804C170.581 5.73804 172.488 6.78515 173.993 8.87937C175.551 10.9736 176.33 14.1418 176.33 18.3839C176.33 24.3981 174.853 31.4325 171.897 39.4872C168.942 47.5418 164.992 55.8113 160.049 64.2956C160.264 67.4101 160.72 69.6385 161.419 70.981C162.171 72.3234 163.112 72.9946 164.24 72.9946C165.691 72.9946 167.169 72.3503 168.673 71.0615C170.178 69.7728 172.193 67.6249 174.718 64.6178C175.363 63.866 176.088 63.4901 176.894 63.4901ZM167.383 13.6316C166.363 13.6316 165.342 15.4574 164.321 19.1088C163.3 22.7066 162.413 27.432 161.661 33.285C160.962 39.1381 160.452 45.2597 160.129 51.6497C166.148 38.5474 169.157 28.0227 169.157 20.0754C169.157 18.0349 168.969 16.4508 168.592 15.3231C168.27 14.1955 167.867 13.6316 167.383 13.6316ZM144.17 73.7196C145.191 73.7196 146.212 73.3168 147.233 72.5114C148.254 71.6522 149.544 70.095 151.102 67.8396C150.565 64.94 150.296 61.6912 150.296 58.0935C150.296 56.8047 150.35 54.7105 150.457 51.8108C147.502 52.7237 145.03 54.7105 143.042 57.7713C141.107 60.7784 140.14 64.1345 140.14 67.8396C140.14 71.7596 141.483 73.7196 144.17 73.7196Z"/>
<path d="M181.076 81.8548C178.013 81.8548 175.515 80.6466 173.58 78.2302C171.7 75.8138 170.759 72.6456 170.759 68.7257C170.759 64.4298 171.753 60.3756 173.742 56.5631C175.73 52.6968 178.363 49.6092 181.641 47.3002C184.972 44.9375 188.492 43.7561 192.199 43.7561C193.382 43.7561 194.161 43.9978 194.537 44.4811C194.967 44.9106 195.316 45.7161 195.585 46.8975C196.606 46.6827 197.734 46.5753 198.97 46.5753C200.26 46.5753 201.254 46.8975 201.952 47.5418C202.651 48.1862 203 49.0991 203 50.2804C203 51.5155 202.731 53.6634 202.194 56.7242C201.603 59.9997 201.146 63.1411 200.824 66.1482C200.501 69.1015 200.34 72.4308 200.34 76.136C200.34 78.1765 199.91 79.6532 199.051 80.566C198.245 81.4252 196.901 81.8548 195.02 81.8548C193.193 81.8548 191.823 81.4252 190.91 80.566C190.05 79.6532 189.62 78.2033 189.62 76.2165L189.701 74.9278C188.035 79.5458 185.16 81.8548 181.076 81.8548ZM184.22 73.7196C185.724 73.7196 187.095 72.6724 188.33 70.5782C189.566 68.484 190.668 64.752 191.635 59.3822L193.167 51.247C190.963 51.3007 188.922 52.1599 187.041 53.8245C185.16 55.4354 183.656 57.5833 182.527 60.2682C181.399 62.9531 180.835 65.7991 180.835 68.8062C180.835 70.4171 181.13 71.6522 181.721 72.5114C182.366 73.3168 183.199 73.7196 184.22 73.7196Z"/>
</mask>
<path d="M57.5018 63.4901C58.2004 63.4901 58.7377 63.8123 59.1139 64.4567C59.5438 65.101 59.7587 65.9871 59.7587 67.1147C59.7587 69.2626 59.2482 70.9273 58.2273 72.1086C55.9167 74.9546 53.418 77.2905 50.7313 79.1162C48.0983 80.9419 45.0892 81.8548 41.7039 81.8548C38.856 81.8548 36.5454 80.8345 34.7721 78.794C31.7093 80.7808 28.5121 81.8011 25.1805 81.8548C24.482 92.2185 22.8968 100.864 20.425 107.791C17.9532 114.772 14.3262 118.262 9.54379 118.262C6.64212 118.262 4.49274 117.215 3.09565 115.121C1.69855 113.026 1 110.127 1 106.422C1 101.159 2.20903 95.0108 4.62708 87.9763C7.04513 80.9956 10.7797 73.29 15.8307 64.8594C15.8307 57.0195 15.777 51.5692 15.6695 48.5084C15.6158 46.9512 16.2337 45.7161 17.5234 44.8032C18.813 43.8904 20.425 43.434 22.3595 43.434C23.4879 43.434 24.2939 43.6756 24.7775 44.1589C25.3149 44.5885 25.6104 45.4745 25.6641 46.8169C25.6641 48.1594 25.691 49.1528 25.7447 49.7972C27.4642 47.6492 29.1569 46.1188 30.8227 45.206C32.4884 44.2394 34.2617 43.7561 36.1424 43.7561C39.1515 43.7561 41.5964 44.9643 43.4771 47.3807C45.4116 49.7972 46.3788 52.9653 46.3788 56.8853C46.3788 59.7313 45.9221 62.4967 45.0086 65.1816C44.0951 67.8665 42.8323 70.3097 41.2203 72.5114C42.3487 72.8335 43.2891 72.9946 44.0413 72.9946C45.8146 72.9946 47.5072 72.3503 49.1193 71.0615C50.7313 69.7728 52.8001 67.6249 55.3256 64.6178C55.9704 63.866 56.6958 63.4901 57.5018 63.4901ZM25.5835 74.1223C27.518 73.6927 29.2912 72.6456 30.9033 70.981C32.569 69.2626 33.8855 67.1684 34.8527 64.6983C35.82 62.1745 36.3036 59.5433 36.3036 56.8047C36.3036 55.1938 35.9812 53.9856 35.3364 53.1801C34.6915 52.321 33.8318 51.8914 32.7571 51.8914C30.8227 51.8914 28.4852 53.9319 25.7447 58.0129C25.691 60.3756 25.6641 63.8391 25.6641 68.4035C25.6641 70.8736 25.6373 72.7798 25.5835 74.1223ZM10.1886 110.368C11.6394 110.368 12.8485 107.2 13.8157 100.864C14.7829 94.5812 15.4009 86.7413 15.6695 77.3442C13.3589 82.714 11.532 87.8421 10.1886 92.7286C8.84524 97.6151 8.17356 101.723 8.17356 105.052C8.17356 106.771 8.3885 108.086 8.81837 108.999C9.19451 109.912 9.65126 110.368 10.1886 110.368Z" fill="#373847"/>
<path d="M63.1799 81.8548C59.8483 81.8548 57.1885 80.6466 55.2003 78.2302C53.2121 75.8138 52.218 72.6456 52.218 68.7257C52.218 64.4298 53.2121 60.3756 55.2003 56.5631C57.1885 52.6968 59.8215 49.6092 63.0993 47.3002C66.4308 44.9375 69.9504 43.7561 73.6581 43.7561C74.8403 43.7561 75.6194 43.9978 75.9955 44.4811C76.4254 44.9106 76.7747 45.7161 77.0434 46.8975C78.1718 46.6827 79.3539 46.5753 80.5898 46.5753C83.2228 46.5753 84.5393 47.515 84.5393 49.3944C84.5393 50.5221 84.1363 53.207 83.3303 57.4491C82.0944 63.6244 81.4765 67.9202 81.4765 70.3366C81.4765 71.1421 81.6645 71.7864 82.0407 72.2697C82.4705 72.753 83.0079 72.9946 83.6527 72.9946C84.6737 72.9946 85.9096 72.3503 87.3604 71.0615C88.8112 69.7191 90.7725 67.5712 93.2443 64.6178C93.8891 63.866 94.6146 63.4901 95.4206 63.4901C96.1191 63.4901 96.6565 63.8123 97.0326 64.4567C97.4625 65.101 97.6774 65.9871 97.6774 67.1147C97.6774 69.2626 97.1669 70.9273 96.146 72.1086C93.9429 74.8472 91.6054 77.1562 89.1336 79.0357C86.6618 80.9151 84.2707 81.8548 81.9601 81.8548C80.1868 81.8548 78.5479 81.2641 77.0434 80.0828C75.5925 78.8477 74.491 77.1831 73.7387 75.0889C70.9445 79.5995 67.4249 81.8548 63.1799 81.8548ZM66.0815 73.7196C67.2637 73.7196 68.3921 73.0215 69.4668 71.6253C70.5415 70.2292 71.3206 68.3766 71.8043 66.0676L74.7865 51.247C72.5297 51.3007 70.434 52.1599 68.4996 53.8245C66.6189 55.4354 65.1143 57.5833 63.9859 60.2682C62.8575 62.9531 62.2932 65.7991 62.2932 68.8062C62.2932 70.4708 62.6156 71.7059 63.2605 72.5114C63.959 73.3168 64.8994 73.7196 66.0815 73.7196Z" fill="#373847"/>
<path d="M96.8494 81.8548C94.8075 81.8548 93.3566 80.7808 92.4969 78.6329C91.6908 76.485 91.2878 73.0483 91.2878 68.3229C91.2878 61.3422 92.2819 54.7105 94.2701 48.4279C94.7537 46.8706 95.5329 45.743 96.6076 45.0449C97.736 44.2931 99.2943 43.9172 101.282 43.9172C102.357 43.9172 103.109 44.0515 103.539 44.32C103.969 44.5885 104.184 45.0986 104.184 45.8504C104.184 46.7095 103.781 48.6426 102.975 51.6497C102.438 53.7976 102.008 55.6771 101.685 57.288C101.363 58.8989 101.094 60.8858 100.879 63.2485C102.653 58.6305 104.641 54.8716 106.844 51.9719C109.047 49.0722 111.196 47.0049 113.292 45.7698C115.442 44.5348 117.403 43.9172 119.176 43.9172C122.669 43.9172 124.415 45.6624 124.415 49.1528C124.415 51.247 123.824 55.0327 122.642 60.5099C121.621 65.1816 121.11 68.2692 121.11 69.7728C121.11 71.9207 121.89 72.9946 123.448 72.9946C124.523 72.9946 125.785 72.3503 127.236 71.0615C128.741 69.7191 130.729 67.5712 133.201 64.6178C133.846 63.866 134.571 63.4901 135.377 63.4901C136.076 63.4901 136.613 63.8123 136.989 64.4567C137.419 65.101 137.634 65.9871 137.634 67.1147C137.634 69.2626 137.123 70.9273 136.102 72.1086C133.792 74.9546 131.293 77.2905 128.606 79.1162C125.973 80.9419 122.964 81.8548 119.579 81.8548C116.839 81.8548 114.77 81.0762 113.373 79.5189C111.976 77.908 111.277 75.599 111.277 72.5919C111.277 71.0884 111.653 68.4035 112.406 64.5372C113.104 61.1543 113.453 58.8184 113.453 57.5296C113.453 56.6705 113.158 56.2409 112.567 56.2409C111.868 56.2409 110.874 57.1538 109.584 58.9795C108.349 60.7515 107.059 63.1142 105.716 66.0676C104.426 69.021 103.378 72.1355 102.572 75.411C101.981 77.9348 101.282 79.6532 100.476 80.566C99.7242 81.4252 98.5151 81.8548 96.8494 81.8548Z" fill="#373847"/>
<path d="M176.894 63.4901C177.593 63.4901 178.13 63.8123 178.507 64.4567C178.936 65.101 179.151 65.9871 179.151 67.1147C179.151 69.2626 178.641 70.9273 177.62 72.1086C175.417 74.7935 172.999 77.1025 170.366 79.0357C167.733 80.9151 165.127 81.8548 162.547 81.8548C158.464 81.8548 155.347 79.4652 153.198 74.6861C150.941 77.5321 148.953 79.4384 147.233 80.4049C145.567 81.3715 143.606 81.8548 141.349 81.8548C138.071 81.8548 135.358 80.6466 133.208 78.2302C131.113 75.7601 130.065 72.5651 130.065 68.6451C130.065 64.3493 130.978 60.3756 132.805 56.7242C134.632 53.019 137.131 50.0119 140.301 47.7029C143.525 45.3402 147.126 43.9441 151.102 43.5145C152.123 33.0971 154.057 24.2101 156.905 16.8535C159.807 9.44319 163.595 5.73804 168.27 5.73804C170.581 5.73804 172.488 6.78515 173.993 8.87937C175.551 10.9736 176.33 14.1418 176.33 18.3839C176.33 24.3981 174.853 31.4325 171.897 39.4872C168.942 47.5418 164.992 55.8113 160.049 64.2956C160.264 67.4101 160.72 69.6385 161.419 70.981C162.171 72.3234 163.112 72.9946 164.24 72.9946C165.691 72.9946 167.169 72.3503 168.673 71.0615C170.178 69.7728 172.193 67.6249 174.718 64.6178C175.363 63.866 176.088 63.4901 176.894 63.4901ZM167.383 13.6316C166.363 13.6316 165.342 15.4574 164.321 19.1088C163.3 22.7066 162.413 27.432 161.661 33.285C160.962 39.1381 160.452 45.2597 160.129 51.6497C166.148 38.5474 169.157 28.0227 169.157 20.0754C169.157 18.0349 168.969 16.4508 168.592 15.3231C168.27 14.1955 167.867 13.6316 167.383 13.6316ZM144.17 73.7196C145.191 73.7196 146.212 73.3168 147.233 72.5114C148.254 71.6522 149.544 70.095 151.102 67.8396C150.565 64.94 150.296 61.6912 150.296 58.0935C150.296 56.8047 150.35 54.7105 150.457 51.8108C147.502 52.7237 145.03 54.7105 143.042 57.7713C141.107 60.7784 140.14 64.1345 140.14 67.8396C140.14 71.7596 141.483 73.7196 144.17 73.7196Z" fill="#373847"/>
<path d="M181.076 81.8548C178.013 81.8548 175.515 80.6466 173.58 78.2302C171.7 75.8138 170.759 72.6456 170.759 68.7257C170.759 64.4298 171.753 60.3756 173.742 56.5631C175.73 52.6968 178.363 49.6092 181.641 47.3002C184.972 44.9375 188.492 43.7561 192.199 43.7561C193.382 43.7561 194.161 43.9978 194.537 44.4811C194.967 44.9106 195.316 45.7161 195.585 46.8975C196.606 46.6827 197.734 46.5753 198.97 46.5753C200.26 46.5753 201.254 46.8975 201.952 47.5418C202.651 48.1862 203 49.0991 203 50.2804C203 51.5155 202.731 53.6634 202.194 56.7242C201.603 59.9997 201.146 63.1411 200.824 66.1482C200.501 69.1015 200.34 72.4308 200.34 76.136C200.34 78.1765 199.91 79.6532 199.051 80.566C198.245 81.4252 196.901 81.8548 195.02 81.8548C193.193 81.8548 191.823 81.4252 190.91 80.566C190.05 79.6532 189.62 78.2033 189.62 76.2165L189.701 74.9278C188.035 79.5458 185.16 81.8548 181.076 81.8548ZM184.22 73.7196C185.724 73.7196 187.095 72.6724 188.33 70.5782C189.566 68.484 190.668 64.752 191.635 59.3822L193.167 51.247C190.963 51.3007 188.922 52.1599 187.041 53.8245C185.16 55.4354 183.656 57.5833 182.527 60.2682C181.399 62.9531 180.835 65.7991 180.835 68.8062C180.835 70.4171 181.13 71.6522 181.721 72.5114C182.366 73.3168 183.199 73.7196 184.22 73.7196Z" fill="#373847"/>
<path d="M57.5018 63.4901C58.2004 63.4901 58.7377 63.8123 59.1139 64.4567C59.5438 65.101 59.7587 65.9871 59.7587 67.1147C59.7587 69.2626 59.2482 70.9273 58.2273 72.1086C55.9167 74.9546 53.418 77.2905 50.7313 79.1162C48.0983 80.9419 45.0892 81.8548 41.7039 81.8548C38.856 81.8548 36.5454 80.8345 34.7721 78.794C31.7093 80.7808 28.5121 81.8011 25.1805 81.8548C24.482 92.2185 22.8968 100.864 20.425 107.791C17.9532 114.772 14.3262 118.262 9.54379 118.262C6.64212 118.262 4.49274 117.215 3.09565 115.121C1.69855 113.026 1 110.127 1 106.422C1 101.159 2.20903 95.0108 4.62708 87.9763C7.04513 80.9956 10.7797 73.29 15.8307 64.8594C15.8307 57.0195 15.777 51.5692 15.6695 48.5084C15.6158 46.9512 16.2337 45.7161 17.5234 44.8032C18.813 43.8904 20.425 43.434 22.3595 43.434C23.4879 43.434 24.2939 43.6756 24.7775 44.1589C25.3149 44.5885 25.6104 45.4745 25.6641 46.8169C25.6641 48.1594 25.691 49.1528 25.7447 49.7972C27.4642 47.6492 29.1569 46.1188 30.8227 45.206C32.4884 44.2394 34.2617 43.7561 36.1424 43.7561C39.1515 43.7561 41.5964 44.9643 43.4771 47.3807C45.4116 49.7972 46.3788 52.9653 46.3788 56.8853C46.3788 59.7313 45.9221 62.4967 45.0086 65.1816C44.0951 67.8665 42.8323 70.3097 41.2203 72.5114C42.3487 72.8335 43.2891 72.9946 44.0413 72.9946C45.8146 72.9946 47.5072 72.3503 49.1193 71.0615C50.7313 69.7728 52.8001 67.6249 55.3256 64.6178C55.9704 63.866 56.6958 63.4901 57.5018 63.4901ZM25.5835 74.1223C27.518 73.6927 29.2912 72.6456 30.9033 70.981C32.569 69.2626 33.8855 67.1684 34.8527 64.6983C35.82 62.1745 36.3036 59.5433 36.3036 56.8047C36.3036 55.1938 35.9812 53.9856 35.3364 53.1801C34.6915 52.321 33.8318 51.8914 32.7571 51.8914C30.8227 51.8914 28.4852 53.9319 25.7447 58.0129C25.691 60.3756 25.6641 63.8391 25.6641 68.4035C25.6641 70.8736 25.6373 72.7798 25.5835 74.1223ZM10.1886 110.368C11.6394 110.368 12.8485 107.2 13.8157 100.864C14.7829 94.5812 15.4009 86.7413 15.6695 77.3442C13.3589 82.714 11.532 87.8421 10.1886 92.7286C8.84524 97.6151 8.17356 101.723 8.17356 105.052C8.17356 106.771 8.3885 108.086 8.81837 108.999C9.19451 109.912 9.65126 110.368 10.1886 110.368Z" stroke="#D1F090" stroke-width="2" mask="url(#path-2-outside-2_674_652)"/>
<path d="M63.1799 81.8548C59.8483 81.8548 57.1885 80.6466 55.2003 78.2302C53.2121 75.8138 52.218 72.6456 52.218 68.7257C52.218 64.4298 53.2121 60.3756 55.2003 56.5631C57.1885 52.6968 59.8215 49.6092 63.0993 47.3002C66.4308 44.9375 69.9504 43.7561 73.6581 43.7561C74.8403 43.7561 75.6194 43.9978 75.9955 44.4811C76.4254 44.9106 76.7747 45.7161 77.0434 46.8975C78.1718 46.6827 79.3539 46.5753 80.5898 46.5753C83.2228 46.5753 84.5393 47.515 84.5393 49.3944C84.5393 50.5221 84.1363 53.207 83.3303 57.4491C82.0944 63.6244 81.4765 67.9202 81.4765 70.3366C81.4765 71.1421 81.6645 71.7864 82.0407 72.2697C82.4705 72.753 83.0079 72.9946 83.6527 72.9946C84.6737 72.9946 85.9096 72.3503 87.3604 71.0615C88.8112 69.7191 90.7725 67.5712 93.2443 64.6178C93.8891 63.866 94.6146 63.4901 95.4206 63.4901C96.1191 63.4901 96.6565 63.8123 97.0326 64.4567C97.4625 65.101 97.6774 65.9871 97.6774 67.1147C97.6774 69.2626 97.1669 70.9273 96.146 72.1086C93.9429 74.8472 91.6054 77.1562 89.1336 79.0357C86.6618 80.9151 84.2707 81.8548 81.9601 81.8548C80.1868 81.8548 78.5479 81.2641 77.0434 80.0828C75.5925 78.8477 74.491 77.1831 73.7387 75.0889C70.9445 79.5995 67.4249 81.8548 63.1799 81.8548ZM66.0815 73.7196C67.2637 73.7196 68.3921 73.0215 69.4668 71.6253C70.5415 70.2292 71.3206 68.3766 71.8043 66.0676L74.7865 51.247C72.5297 51.3007 70.434 52.1599 68.4996 53.8245C66.6189 55.4354 65.1143 57.5833 63.9859 60.2682C62.8575 62.9531 62.2932 65.7991 62.2932 68.8062C62.2932 70.4708 62.6156 71.7059 63.2605 72.5114C63.959 73.3168 64.8994 73.7196 66.0815 73.7196Z" stroke="#D1F090" stroke-width="2" mask="url(#path-2-outside-2_674_652)"/>
<path d="M96.8494 81.8548C94.8075 81.8548 93.3566 80.7808 92.4969 78.6329C91.6908 76.485 91.2878 73.0483 91.2878 68.3229C91.2878 61.3422 92.2819 54.7105 94.2701 48.4279C94.7537 46.8706 95.5329 45.743 96.6076 45.0449C97.736 44.2931 99.2943 43.9172 101.282 43.9172C102.357 43.9172 103.109 44.0515 103.539 44.32C103.969 44.5885 104.184 45.0986 104.184 45.8504C104.184 46.7095 103.781 48.6426 102.975 51.6497C102.438 53.7976 102.008 55.6771 101.685 57.288C101.363 58.8989 101.094 60.8858 100.879 63.2485C102.653 58.6305 104.641 54.8716 106.844 51.9719C109.047 49.0722 111.196 47.0049 113.292 45.7698C115.442 44.5348 117.403 43.9172 119.176 43.9172C122.669 43.9172 124.415 45.6624 124.415 49.1528C124.415 51.247 123.824 55.0327 122.642 60.5099C121.621 65.1816 121.11 68.2692 121.11 69.7728C121.11 71.9207 121.89 72.9946 123.448 72.9946C124.523 72.9946 125.785 72.3503 127.236 71.0615C128.741 69.7191 130.729 67.5712 133.201 64.6178C133.846 63.866 134.571 63.4901 135.377 63.4901C136.076 63.4901 136.613 63.8123 136.989 64.4567C137.419 65.101 137.634 65.9871 137.634 67.1147C137.634 69.2626 137.123 70.9273 136.102 72.1086C133.792 74.9546 131.293 77.2905 128.606 79.1162C125.973 80.9419 122.964 81.8548 119.579 81.8548C116.839 81.8548 114.77 81.0762 113.373 79.5189C111.976 77.908 111.277 75.599 111.277 72.5919C111.277 71.0884 111.653 68.4035 112.406 64.5372C113.104 61.1543 113.453 58.8184 113.453 57.5296C113.453 56.6705 113.158 56.2409 112.567 56.2409C111.868 56.2409 110.874 57.1538 109.584 58.9795C108.349 60.7515 107.059 63.1142 105.716 66.0676C104.426 69.021 103.378 72.1355 102.572 75.411C101.981 77.9348 101.282 79.6532 100.476 80.566C99.7242 81.4252 98.5151 81.8548 96.8494 81.8548Z" stroke="#D1F090" stroke-width="2" mask="url(#path-2-outside-2_674_652)"/>
<path d="M176.894 63.4901C177.593 63.4901 178.13 63.8123 178.507 64.4567C178.936 65.101 179.151 65.9871 179.151 67.1147C179.151 69.2626 178.641 70.9273 177.62 72.1086C175.417 74.7935 172.999 77.1025 170.366 79.0357C167.733 80.9151 165.127 81.8548 162.547 81.8548C158.464 81.8548 155.347 79.4652 153.198 74.6861C150.941 77.5321 148.953 79.4384 147.233 80.4049C145.567 81.3715 143.606 81.8548 141.349 81.8548C138.071 81.8548 135.358 80.6466 133.208 78.2302C131.113 75.7601 130.065 72.5651 130.065 68.6451C130.065 64.3493 130.978 60.3756 132.805 56.7242C134.632 53.019 137.131 50.0119 140.301 47.7029C143.525 45.3402 147.126 43.9441 151.102 43.5145C152.123 33.0971 154.057 24.2101 156.905 16.8535C159.807 9.44319 163.595 5.73804 168.27 5.73804C170.581 5.73804 172.488 6.78515 173.993 8.87937C175.551 10.9736 176.33 14.1418 176.33 18.3839C176.33 24.3981 174.853 31.4325 171.897 39.4872C168.942 47.5418 164.992 55.8113 160.049 64.2956C160.264 67.4101 160.72 69.6385 161.419 70.981C162.171 72.3234 163.112 72.9946 164.24 72.9946C165.691 72.9946 167.169 72.3503 168.673 71.0615C170.178 69.7728 172.193 67.6249 174.718 64.6178C175.363 63.866 176.088 63.4901 176.894 63.4901ZM167.383 13.6316C166.363 13.6316 165.342 15.4574 164.321 19.1088C163.3 22.7066 162.413 27.432 161.661 33.285C160.962 39.1381 160.452 45.2597 160.129 51.6497C166.148 38.5474 169.157 28.0227 169.157 20.0754C169.157 18.0349 168.969 16.4508 168.592 15.3231C168.27 14.1955 167.867 13.6316 167.383 13.6316ZM144.17 73.7196C145.191 73.7196 146.212 73.3168 147.233 72.5114C148.254 71.6522 149.544 70.095 151.102 67.8396C150.565 64.94 150.296 61.6912 150.296 58.0935C150.296 56.8047 150.35 54.7105 150.457 51.8108C147.502 52.7237 145.03 54.7105 143.042 57.7713C141.107 60.7784 140.14 64.1345 140.14 67.8396C140.14 71.7596 141.483 73.7196 144.17 73.7196Z" stroke="#D1F090" stroke-width="2" mask="url(#path-2-outside-2_674_652)"/>
<path d="M181.076 81.8548C178.013 81.8548 175.515 80.6466 173.58 78.2302C171.7 75.8138 170.759 72.6456 170.759 68.7257C170.759 64.4298 171.753 60.3756 173.742 56.5631C175.73 52.6968 178.363 49.6092 181.641 47.3002C184.972 44.9375 188.492 43.7561 192.199 43.7561C193.382 43.7561 194.161 43.9978 194.537 44.4811C194.967 44.9106 195.316 45.7161 195.585 46.8975C196.606 46.6827 197.734 46.5753 198.97 46.5753C200.26 46.5753 201.254 46.8975 201.952 47.5418C202.651 48.1862 203 49.0991 203 50.2804C203 51.5155 202.731 53.6634 202.194 56.7242C201.603 59.9997 201.146 63.1411 200.824 66.1482C200.501 69.1015 200.34 72.4308 200.34 76.136C200.34 78.1765 199.91 79.6532 199.051 80.566C198.245 81.4252 196.901 81.8548 195.02 81.8548C193.193 81.8548 191.823 81.4252 190.91 80.566C190.05 79.6532 189.62 78.2033 189.62 76.2165L189.701 74.9278C188.035 79.5458 185.16 81.8548 181.076 81.8548ZM184.22 73.7196C185.724 73.7196 187.095 72.6724 188.33 70.5782C189.566 68.484 190.668 64.752 191.635 59.3822L193.167 51.247C190.963 51.3007 188.922 52.1599 187.041 53.8245C185.16 55.4354 183.656 57.5833 182.527 60.2682C181.399 62.9531 180.835 65.7991 180.835 68.8062C180.835 70.4171 181.13 71.6522 181.721 72.5114C182.366 73.3168 183.199 73.7196 184.22 73.7196Z" stroke="#D1F090" stroke-width="2" mask="url(#path-2-outside-2_674_652)"/>
<mask id="path-3-outside-3_674_652" maskUnits="userSpaceOnUse" x="0" y="9.47607" width="204" height="115" fill="black">
<rect fill="white" y="9.47607" width="204" height="115"/>
<path d="M57.5018 68.2281C58.2004 68.2281 58.7377 68.5503 59.1139 69.1947C59.5438 69.8391 59.7587 70.7251 59.7587 71.8528C59.7587 74.0007 59.2482 75.6653 58.2273 76.8467C55.9167 79.6926 53.418 82.0285 50.7313 83.8542C48.0983 85.68 45.0892 86.5928 41.7039 86.5928C38.856 86.5928 36.5454 85.5726 34.7721 83.532C31.7093 85.5189 28.5121 86.5391 25.1805 86.5928C24.482 96.9565 22.8968 105.602 20.425 112.529C17.9532 119.51 14.3262 123 9.54379 123C6.64212 123 4.49274 121.953 3.09565 119.859C1.69855 117.764 1 114.865 1 111.16C1 105.897 2.20903 99.7488 4.62708 92.7144C7.04513 85.7337 10.7797 78.028 15.8307 69.5974C15.8307 61.7576 15.777 56.3072 15.6695 53.2464C15.6158 51.6892 16.2337 50.4541 17.5234 49.5413C18.813 48.6284 20.425 48.172 22.3595 48.172C23.4879 48.172 24.2939 48.4136 24.7775 48.8969C25.3149 49.3265 25.6104 50.2125 25.6641 51.555C25.6641 52.8974 25.691 53.8908 25.7447 54.5352C27.4642 52.3873 29.1569 50.8569 30.8227 49.944C32.4884 48.9775 34.2617 48.4942 36.1424 48.4942C39.1515 48.4942 41.5964 49.7024 43.4771 52.1188C45.4116 54.5352 46.3788 57.7034 46.3788 61.6233C46.3788 64.4693 45.9221 67.2347 45.0086 69.9196C44.0951 72.6045 42.8323 75.0478 41.2203 77.2494C42.3487 77.5716 43.2891 77.7327 44.0413 77.7327C45.8146 77.7327 47.5072 77.0883 49.1193 75.7996C50.7313 74.5108 52.8001 72.3629 55.3256 69.3558C55.9704 68.604 56.6958 68.2281 57.5018 68.2281ZM25.5835 78.8603C27.518 78.4307 29.2912 77.3836 30.9033 75.719C32.569 74.0007 33.8855 71.9065 34.8527 69.4364C35.82 66.9126 36.3036 64.2814 36.3036 61.5428C36.3036 59.9318 35.9812 58.7236 35.3364 57.9182C34.6915 57.059 33.8318 56.6294 32.7571 56.6294C30.8227 56.6294 28.4852 58.6699 25.7447 62.751C25.691 65.1137 25.6641 68.5772 25.6641 73.1415C25.6641 75.6116 25.6373 77.5179 25.5835 78.8603ZM10.1886 115.106C11.6394 115.106 12.8485 111.938 13.8157 105.602C14.7829 99.3192 15.4009 91.4793 15.6695 82.0822C13.3589 87.452 11.532 92.5801 10.1886 97.4666C8.84524 102.353 8.17356 106.461 8.17356 109.79C8.17356 111.509 8.3885 112.824 8.81837 113.737C9.19451 114.65 9.65126 115.106 10.1886 115.106Z"/>
<path d="M63.1799 86.5928C59.8483 86.5928 57.1885 85.3846 55.2003 82.9682C53.2121 80.5518 52.218 77.3836 52.218 73.4637C52.218 69.1679 53.2121 65.1137 55.2003 61.3011C57.1885 57.4349 59.8215 54.3472 63.0993 52.0382C66.4308 49.6755 69.9504 48.4942 73.6581 48.4942C74.8403 48.4942 75.6194 48.7358 75.9955 49.2191C76.4254 49.6487 76.7747 50.4541 77.0434 51.6355C78.1718 51.4207 79.3539 51.3133 80.5898 51.3133C83.2228 51.3133 84.5393 52.253 84.5393 54.1325C84.5393 55.2601 84.1363 57.945 83.3303 62.1871C82.0944 68.3624 81.4765 72.6582 81.4765 75.0746C81.4765 75.8801 81.6645 76.5245 82.0407 77.0078C82.4705 77.491 83.0079 77.7327 83.6527 77.7327C84.6737 77.7327 85.9096 77.0883 87.3604 75.7996C88.8112 74.4571 90.7725 72.3092 93.2443 69.3558C93.8891 68.604 94.6146 68.2281 95.4206 68.2281C96.1191 68.2281 96.6565 68.5503 97.0326 69.1947C97.4625 69.8391 97.6774 70.7251 97.6774 71.8528C97.6774 74.0007 97.1669 75.6653 96.146 76.8467C93.9429 79.5852 91.6054 81.8943 89.1336 83.7737C86.6618 85.6531 84.2707 86.5928 81.9601 86.5928C80.1868 86.5928 78.5479 86.0021 77.0434 84.8208C75.5925 83.5857 74.491 81.9211 73.7387 79.8269C70.9445 84.3375 67.4249 86.5928 63.1799 86.5928ZM66.0815 78.4576C67.2637 78.4576 68.3921 77.7595 69.4668 76.3634C70.5415 74.9672 71.3206 73.1147 71.8043 70.8056L74.7865 55.985C72.5297 56.0387 70.434 56.8979 68.4996 58.5625C66.6189 60.1735 65.1143 62.3214 63.9859 65.0063C62.8575 67.6912 62.2932 70.5372 62.2932 73.5442C62.2932 75.2089 62.6156 76.4439 63.2605 77.2494C63.959 78.0549 64.8994 78.4576 66.0815 78.4576Z"/>
<path d="M96.8494 86.5928C94.8075 86.5928 93.3566 85.5189 92.4969 83.371C91.6908 81.223 91.2878 77.7864 91.2878 73.061C91.2878 66.0802 92.2819 59.4485 94.2701 53.1659C94.7537 51.6087 95.5329 50.481 96.6076 49.7829C97.736 49.0312 99.2943 48.6553 101.282 48.6553C102.357 48.6553 103.109 48.7895 103.539 49.058C103.969 49.3265 104.184 49.8366 104.184 50.5884C104.184 51.4476 103.781 53.3807 102.975 56.3878C102.438 58.5357 102.008 60.4151 101.685 62.026C101.363 63.637 101.094 65.6238 100.879 67.9865C102.653 63.3685 104.641 59.6096 106.844 56.71C109.047 53.8103 111.196 51.7429 113.292 50.5078C115.442 49.2728 117.403 48.6553 119.176 48.6553C122.669 48.6553 124.415 50.4005 124.415 53.8908C124.415 55.985 123.824 59.7707 122.642 65.2479C121.621 69.9196 121.11 73.0073 121.11 74.5108C121.11 76.6587 121.89 77.7327 123.448 77.7327C124.523 77.7327 125.785 77.0883 127.236 75.7996C128.741 74.4571 130.729 72.3092 133.201 69.3558C133.846 68.604 134.571 68.2281 135.377 68.2281C136.076 68.2281 136.613 68.5503 136.989 69.1947C137.419 69.8391 137.634 70.7251 137.634 71.8528C137.634 74.0007 137.123 75.6653 136.102 76.8467C133.792 79.6926 131.293 82.0285 128.606 83.8542C125.973 85.68 122.964 86.5928 119.579 86.5928C116.839 86.5928 114.77 85.8142 113.373 84.257C111.976 82.646 111.277 80.337 111.277 77.3299C111.277 75.8264 111.653 73.1415 112.406 69.2753C113.104 65.8923 113.453 63.5564 113.453 62.2677C113.453 61.4085 113.158 60.9789 112.567 60.9789C111.868 60.9789 110.874 61.8918 109.584 63.7175C108.349 65.4896 107.059 67.8523 105.716 70.8056C104.426 73.759 103.378 76.8735 102.572 80.1491C101.981 82.6729 101.282 84.3912 100.476 85.3041C99.7242 86.1632 98.5151 86.5928 96.8494 86.5928Z"/>
<path d="M176.894 68.2281C177.593 68.2281 178.13 68.5503 178.507 69.1947C178.936 69.8391 179.151 70.7251 179.151 71.8528C179.151 74.0007 178.641 75.6653 177.62 76.8467C175.417 79.5316 172.999 81.8406 170.366 83.7737C167.733 85.6531 165.127 86.5928 162.547 86.5928C158.464 86.5928 155.347 84.2033 153.198 79.4242C150.941 82.2701 148.953 84.1764 147.233 85.143C145.567 86.1095 143.606 86.5928 141.349 86.5928C138.071 86.5928 135.358 85.3846 133.208 82.9682C131.113 80.4981 130.065 77.3031 130.065 73.3831C130.065 69.0873 130.978 65.1137 132.805 61.4622C134.632 57.7571 137.131 54.75 140.301 52.441C143.525 50.0783 147.126 48.6821 151.102 48.2525C152.123 37.8351 154.057 28.9481 156.905 21.5915C159.807 14.1812 163.595 10.4761 168.27 10.4761C170.581 10.4761 172.488 11.5232 173.993 13.6174C175.551 15.7116 176.33 18.8798 176.33 23.1219C176.33 29.1361 174.853 36.1705 171.897 44.2252C168.942 52.2799 164.992 60.5493 160.049 69.0336C160.264 72.1481 160.72 74.3766 161.419 75.719C162.171 77.0615 163.112 77.7327 164.24 77.7327C165.691 77.7327 167.169 77.0883 168.673 75.7996C170.178 74.5108 172.193 72.3629 174.718 69.3558C175.363 68.604 176.088 68.2281 176.894 68.2281ZM167.383 18.3697C166.363 18.3697 165.342 20.1954 164.321 23.8468C163.3 27.4446 162.413 32.17 161.661 38.0231C160.962 43.8762 160.452 49.9977 160.129 56.3878C166.148 43.2855 169.157 32.7607 169.157 24.8134C169.157 22.7729 168.969 21.1888 168.592 20.0611C168.27 18.9335 167.867 18.3697 167.383 18.3697ZM144.17 78.4576C145.191 78.4576 146.212 78.0549 147.233 77.2494C148.254 76.3902 149.544 74.833 151.102 72.5777C150.565 69.678 150.296 66.4293 150.296 62.8315C150.296 61.5428 150.35 59.4485 150.457 56.5489C147.502 57.4617 145.03 59.4485 143.042 62.5093C141.107 65.5164 140.14 68.8725 140.14 72.5777C140.14 76.4976 141.483 78.4576 144.17 78.4576Z"/>
<path d="M181.076 86.5928C178.013 86.5928 175.515 85.3846 173.58 82.9682C171.7 80.5518 170.759 77.3836 170.759 73.4637C170.759 69.1679 171.753 65.1137 173.742 61.3011C175.73 57.4349 178.363 54.3472 181.641 52.0382C184.972 49.6755 188.492 48.4942 192.199 48.4942C193.382 48.4942 194.161 48.7358 194.537 49.2191C194.967 49.6487 195.316 50.4541 195.585 51.6355C196.606 51.4207 197.734 51.3133 198.97 51.3133C200.26 51.3133 201.254 51.6355 201.952 52.2799C202.651 52.9243 203 53.8371 203 55.0185C203 56.2535 202.731 58.4014 202.194 61.4622C201.603 64.7378 201.146 67.8791 200.824 70.8862C200.501 73.8396 200.34 77.1689 200.34 80.874C200.34 82.9145 199.91 84.3912 199.051 85.3041C198.245 86.1632 196.901 86.5928 195.02 86.5928C193.193 86.5928 191.823 86.1632 190.91 85.3041C190.05 84.3912 189.62 82.9414 189.62 80.9546L189.701 79.6658C188.035 84.2838 185.16 86.5928 181.076 86.5928ZM184.22 78.4576C185.724 78.4576 187.095 77.4105 188.33 75.3163C189.566 73.2221 190.668 69.49 191.635 64.1203L193.167 55.985C190.963 56.0387 188.922 56.8979 187.041 58.5625C185.16 60.1735 183.656 62.3214 182.527 65.0063C181.399 67.6912 180.835 70.5372 180.835 73.5442C180.835 75.1552 181.13 76.3902 181.721 77.2494C182.366 78.0549 183.199 78.4576 184.22 78.4576Z"/>
</mask>
<path d="M57.5018 68.2281C58.2004 68.2281 58.7377 68.5503 59.1139 69.1947C59.5438 69.8391 59.7587 70.7251 59.7587 71.8528C59.7587 74.0007 59.2482 75.6653 58.2273 76.8467C55.9167 79.6926 53.418 82.0285 50.7313 83.8542C48.0983 85.68 45.0892 86.5928 41.7039 86.5928C38.856 86.5928 36.5454 85.5726 34.7721 83.532C31.7093 85.5189 28.5121 86.5391 25.1805 86.5928C24.482 96.9565 22.8968 105.602 20.425 112.529C17.9532 119.51 14.3262 123 9.54379 123C6.64212 123 4.49274 121.953 3.09565 119.859C1.69855 117.764 1 114.865 1 111.16C1 105.897 2.20903 99.7488 4.62708 92.7144C7.04513 85.7337 10.7797 78.028 15.8307 69.5974C15.8307 61.7576 15.777 56.3072 15.6695 53.2464C15.6158 51.6892 16.2337 50.4541 17.5234 49.5413C18.813 48.6284 20.425 48.172 22.3595 48.172C23.4879 48.172 24.2939 48.4136 24.7775 48.8969C25.3149 49.3265 25.6104 50.2125 25.6641 51.555C25.6641 52.8974 25.691 53.8908 25.7447 54.5352C27.4642 52.3873 29.1569 50.8569 30.8227 49.944C32.4884 48.9775 34.2617 48.4942 36.1424 48.4942C39.1515 48.4942 41.5964 49.7024 43.4771 52.1188C45.4116 54.5352 46.3788 57.7034 46.3788 61.6233C46.3788 64.4693 45.9221 67.2347 45.0086 69.9196C44.0951 72.6045 42.8323 75.0478 41.2203 77.2494C42.3487 77.5716 43.2891 77.7327 44.0413 77.7327C45.8146 77.7327 47.5072 77.0883 49.1193 75.7996C50.7313 74.5108 52.8001 72.3629 55.3256 69.3558C55.9704 68.604 56.6958 68.2281 57.5018 68.2281ZM25.5835 78.8603C27.518 78.4307 29.2912 77.3836 30.9033 75.719C32.569 74.0007 33.8855 71.9065 34.8527 69.4364C35.82 66.9126 36.3036 64.2814 36.3036 61.5428C36.3036 59.9318 35.9812 58.7236 35.3364 57.9182C34.6915 57.059 33.8318 56.6294 32.7571 56.6294C30.8227 56.6294 28.4852 58.6699 25.7447 62.751C25.691 65.1137 25.6641 68.5772 25.6641 73.1415C25.6641 75.6116 25.6373 77.5179 25.5835 78.8603ZM10.1886 115.106C11.6394 115.106 12.8485 111.938 13.8157 105.602C14.7829 99.3192 15.4009 91.4793 15.6695 82.0822C13.3589 87.452 11.532 92.5801 10.1886 97.4666C8.84524 102.353 8.17356 106.461 8.17356 109.79C8.17356 111.509 8.3885 112.824 8.81837 113.737C9.19451 114.65 9.65126 115.106 10.1886 115.106Z" fill="#373847"/>
<path d="M63.1799 86.5928C59.8483 86.5928 57.1885 85.3846 55.2003 82.9682C53.2121 80.5518 52.218 77.3836 52.218 73.4637C52.218 69.1679 53.2121 65.1137 55.2003 61.3011C57.1885 57.4349 59.8215 54.3472 63.0993 52.0382C66.4308 49.6755 69.9504 48.4942 73.6581 48.4942C74.8403 48.4942 75.6194 48.7358 75.9955 49.2191C76.4254 49.6487 76.7747 50.4541 77.0434 51.6355C78.1718 51.4207 79.3539 51.3133 80.5898 51.3133C83.2228 51.3133 84.5393 52.253 84.5393 54.1325C84.5393 55.2601 84.1363 57.945 83.3303 62.1871C82.0944 68.3624 81.4765 72.6582 81.4765 75.0746C81.4765 75.8801 81.6645 76.5245 82.0407 77.0078C82.4705 77.491 83.0079 77.7327 83.6527 77.7327C84.6737 77.7327 85.9096 77.0883 87.3604 75.7996C88.8112 74.4571 90.7725 72.3092 93.2443 69.3558C93.8891 68.604 94.6146 68.2281 95.4206 68.2281C96.1191 68.2281 96.6565 68.5503 97.0326 69.1947C97.4625 69.8391 97.6774 70.7251 97.6774 71.8528C97.6774 74.0007 97.1669 75.6653 96.146 76.8467C93.9429 79.5852 91.6054 81.8943 89.1336 83.7737C86.6618 85.6531 84.2707 86.5928 81.9601 86.5928C80.1868 86.5928 78.5479 86.0021 77.0434 84.8208C75.5925 83.5857 74.491 81.9211 73.7387 79.8269C70.9445 84.3375 67.4249 86.5928 63.1799 86.5928ZM66.0815 78.4576C67.2637 78.4576 68.3921 77.7595 69.4668 76.3634C70.5415 74.9672 71.3206 73.1147 71.8043 70.8056L74.7865 55.985C72.5297 56.0387 70.434 56.8979 68.4996 58.5625C66.6189 60.1735 65.1143 62.3214 63.9859 65.0063C62.8575 67.6912 62.2932 70.5372 62.2932 73.5442C62.2932 75.2089 62.6156 76.4439 63.2605 77.2494C63.959 78.0549 64.8994 78.4576 66.0815 78.4576Z" fill="#373847"/>
<path d="M96.8494 86.5928C94.8075 86.5928 93.3566 85.5189 92.4969 83.371C91.6908 81.223 91.2878 77.7864 91.2878 73.061C91.2878 66.0802 92.2819 59.4485 94.2701 53.1659C94.7537 51.6087 95.5329 50.481 96.6076 49.7829C97.736 49.0312 99.2943 48.6553 101.282 48.6553C102.357 48.6553 103.109 48.7895 103.539 49.058C103.969 49.3265 104.184 49.8366 104.184 50.5884C104.184 51.4476 103.781 53.3807 102.975 56.3878C102.438 58.5357 102.008 60.4151 101.685 62.026C101.363 63.637 101.094 65.6238 100.879 67.9865C102.653 63.3685 104.641 59.6096 106.844 56.71C109.047 53.8103 111.196 51.7429 113.292 50.5078C115.442 49.2728 117.403 48.6553 119.176 48.6553C122.669 48.6553 124.415 50.4005 124.415 53.8908C124.415 55.985 123.824 59.7707 122.642 65.2479C121.621 69.9196 121.11 73.0073 121.11 74.5108C121.11 76.6587 121.89 77.7327 123.448 77.7327C124.523 77.7327 125.785 77.0883 127.236 75.7996C128.741 74.4571 130.729 72.3092 133.201 69.3558C133.846 68.604 134.571 68.2281 135.377 68.2281C136.076 68.2281 136.613 68.5503 136.989 69.1947C137.419 69.8391 137.634 70.7251 137.634 71.8528C137.634 74.0007 137.123 75.6653 136.102 76.8467C133.792 79.6926 131.293 82.0285 128.606 83.8542C125.973 85.68 122.964 86.5928 119.579 86.5928C116.839 86.5928 114.77 85.8142 113.373 84.257C111.976 82.646 111.277 80.337 111.277 77.3299C111.277 75.8264 111.653 73.1415 112.406 69.2753C113.104 65.8923 113.453 63.5564 113.453 62.2677C113.453 61.4085 113.158 60.9789 112.567 60.9789C111.868 60.9789 110.874 61.8918 109.584 63.7175C108.349 65.4896 107.059 67.8523 105.716 70.8056C104.426 73.759 103.378 76.8735 102.572 80.1491C101.981 82.6729 101.282 84.3912 100.476 85.3041C99.7242 86.1632 98.5151 86.5928 96.8494 86.5928Z" fill="#373847"/>
<path d="M176.894 68.2281C177.593 68.2281 178.13 68.5503 178.507 69.1947C178.936 69.8391 179.151 70.7251 179.151 71.8528C179.151 74.0007 178.641 75.6653 177.62 76.8467C175.417 79.5316 172.999 81.8406 170.366 83.7737C167.733 85.6531 165.127 86.5928 162.547 86.5928C158.464 86.5928 155.347 84.2033 153.198 79.4242C150.941 82.2701 148.953 84.1764 147.233 85.143C145.567 86.1095 143.606 86.5928 141.349 86.5928C138.071 86.5928 135.358 85.3846 133.208 82.9682C131.113 80.4981 130.065 77.3031 130.065 73.3831C130.065 69.0873 130.978 65.1137 132.805 61.4622C134.632 57.7571 137.131 54.75 140.301 52.441C143.525 50.0783 147.126 48.6821 151.102 48.2525C152.123 37.8351 154.057 28.9481 156.905 21.5915C159.807 14.1812 163.595 10.4761 168.27 10.4761C170.581 10.4761 172.488 11.5232 173.993 13.6174C175.551 15.7116 176.33 18.8798 176.33 23.1219C176.33 29.1361 174.853 36.1705 171.897 44.2252C168.942 52.2799 164.992 60.5493 160.049 69.0336C160.264 72.1481 160.72 74.3766 161.419 75.719C162.171 77.0615 163.112 77.7327 164.24 77.7327C165.691 77.7327 167.169 77.0883 168.673 75.7996C170.178 74.5108 172.193 72.3629 174.718 69.3558C175.363 68.604 176.088 68.2281 176.894 68.2281ZM167.383 18.3697C166.363 18.3697 165.342 20.1954 164.321 23.8468C163.3 27.4446 162.413 32.17 161.661 38.0231C160.962 43.8762 160.452 49.9977 160.129 56.3878C166.148 43.2855 169.157 32.7607 169.157 24.8134C169.157 22.7729 168.969 21.1888 168.592 20.0611C168.27 18.9335 167.867 18.3697 167.383 18.3697ZM144.17 78.4576C145.191 78.4576 146.212 78.0549 147.233 77.2494C148.254 76.3902 149.544 74.833 151.102 72.5777C150.565 69.678 150.296 66.4293 150.296 62.8315C150.296 61.5428 150.35 59.4485 150.457 56.5489C147.502 57.4617 145.03 59.4485 143.042 62.5093C141.107 65.5164 140.14 68.8725 140.14 72.5777C140.14 76.4976 141.483 78.4576 144.17 78.4576Z" fill="#373847"/>
<path d="M181.076 86.5928C178.013 86.5928 175.515 85.3846 173.58 82.9682C171.7 80.5518 170.759 77.3836 170.759 73.4637C170.759 69.1679 171.753 65.1137 173.742 61.3011C175.73 57.4349 178.363 54.3472 181.641 52.0382C184.972 49.6755 188.492 48.4942 192.199 48.4942C193.382 48.4942 194.161 48.7358 194.537 49.2191C194.967 49.6487 195.316 50.4541 195.585 51.6355C196.606 51.4207 197.734 51.3133 198.97 51.3133C200.26 51.3133 201.254 51.6355 201.952 52.2799C202.651 52.9243 203 53.8371 203 55.0185C203 56.2535 202.731 58.4014 202.194 61.4622C201.603 64.7378 201.146 67.8791 200.824 70.8862C200.501 73.8396 200.34 77.1689 200.34 80.874C200.34 82.9145 199.91 84.3912 199.051 85.3041C198.245 86.1632 196.901 86.5928 195.02 86.5928C193.193 86.5928 191.823 86.1632 190.91 85.3041C190.05 84.3912 189.62 82.9414 189.62 80.9546L189.701 79.6658C188.035 84.2838 185.16 86.5928 181.076 86.5928ZM184.22 78.4576C185.724 78.4576 187.095 77.4105 188.33 75.3163C189.566 73.2221 190.668 69.49 191.635 64.1203L193.167 55.985C190.963 56.0387 188.922 56.8979 187.041 58.5625C185.16 60.1735 183.656 62.3214 182.527 65.0063C181.399 67.6912 180.835 70.5372 180.835 73.5442C180.835 75.1552 181.13 76.3902 181.721 77.2494C182.366 78.0549 183.199 78.4576 184.22 78.4576Z" fill="#373847"/>
<path d="M57.5018 68.2281C58.2004 68.2281 58.7377 68.5503 59.1139 69.1947C59.5438 69.8391 59.7587 70.7251 59.7587 71.8528C59.7587 74.0007 59.2482 75.6653 58.2273 76.8467C55.9167 79.6926 53.418 82.0285 50.7313 83.8542C48.0983 85.68 45.0892 86.5928 41.7039 86.5928C38.856 86.5928 36.5454 85.5726 34.7721 83.532C31.7093 85.5189 28.5121 86.5391 25.1805 86.5928C24.482 96.9565 22.8968 105.602 20.425 112.529C17.9532 119.51 14.3262 123 9.54379 123C6.64212 123 4.49274 121.953 3.09565 119.859C1.69855 117.764 1 114.865 1 111.16C1 105.897 2.20903 99.7488 4.62708 92.7144C7.04513 85.7337 10.7797 78.028 15.8307 69.5974C15.8307 61.7576 15.777 56.3072 15.6695 53.2464C15.6158 51.6892 16.2337 50.4541 17.5234 49.5413C18.813 48.6284 20.425 48.172 22.3595 48.172C23.4879 48.172 24.2939 48.4136 24.7775 48.8969C25.3149 49.3265 25.6104 50.2125 25.6641 51.555C25.6641 52.8974 25.691 53.8908 25.7447 54.5352C27.4642 52.3873 29.1569 50.8569 30.8227 49.944C32.4884 48.9775 34.2617 48.4942 36.1424 48.4942C39.1515 48.4942 41.5964 49.7024 43.4771 52.1188C45.4116 54.5352 46.3788 57.7034 46.3788 61.6233C46.3788 64.4693 45.9221 67.2347 45.0086 69.9196C44.0951 72.6045 42.8323 75.0478 41.2203 77.2494C42.3487 77.5716 43.2891 77.7327 44.0413 77.7327C45.8146 77.7327 47.5072 77.0883 49.1193 75.7996C50.7313 74.5108 52.8001 72.3629 55.3256 69.3558C55.9704 68.604 56.6958 68.2281 57.5018 68.2281ZM25.5835 78.8603C27.518 78.4307 29.2912 77.3836 30.9033 75.719C32.569 74.0007 33.8855 71.9065 34.8527 69.4364C35.82 66.9126 36.3036 64.2814 36.3036 61.5428C36.3036 59.9318 35.9812 58.7236 35.3364 57.9182C34.6915 57.059 33.8318 56.6294 32.7571 56.6294C30.8227 56.6294 28.4852 58.6699 25.7447 62.751C25.691 65.1137 25.6641 68.5772 25.6641 73.1415C25.6641 75.6116 25.6373 77.5179 25.5835 78.8603ZM10.1886 115.106C11.6394 115.106 12.8485 111.938 13.8157 105.602C14.7829 99.3192 15.4009 91.4793 15.6695 82.0822C13.3589 87.452 11.532 92.5801 10.1886 97.4666C8.84524 102.353 8.17356 106.461 8.17356 109.79C8.17356 111.509 8.3885 112.824 8.81837 113.737C9.19451 114.65 9.65126 115.106 10.1886 115.106Z" stroke="#D1F090" stroke-width="2" mask="url(#path-3-outside-3_674_652)"/>
<path d="M63.1799 86.5928C59.8483 86.5928 57.1885 85.3846 55.2003 82.9682C53.2121 80.5518 52.218 77.3836 52.218 73.4637C52.218 69.1679 53.2121 65.1137 55.2003 61.3011C57.1885 57.4349 59.8215 54.3472 63.0993 52.0382C66.4308 49.6755 69.9504 48.4942 73.6581 48.4942C74.8403 48.4942 75.6194 48.7358 75.9955 49.2191C76.4254 49.6487 76.7747 50.4541 77.0434 51.6355C78.1718 51.4207 79.3539 51.3133 80.5898 51.3133C83.2228 51.3133 84.5393 52.253 84.5393 54.1325C84.5393 55.2601 84.1363 57.945 83.3303 62.1871C82.0944 68.3624 81.4765 72.6582 81.4765 75.0746C81.4765 75.8801 81.6645 76.5245 82.0407 77.0078C82.4705 77.491 83.0079 77.7327 83.6527 77.7327C84.6737 77.7327 85.9096 77.0883 87.3604 75.7996C88.8112 74.4571 90.7725 72.3092 93.2443 69.3558C93.8891 68.604 94.6146 68.2281 95.4206 68.2281C96.1191 68.2281 96.6565 68.5503 97.0326 69.1947C97.4625 69.8391 97.6774 70.7251 97.6774 71.8528C97.6774 74.0007 97.1669 75.6653 96.146 76.8467C93.9429 79.5852 91.6054 81.8943 89.1336 83.7737C86.6618 85.6531 84.2707 86.5928 81.9601 86.5928C80.1868 86.5928 78.5479 86.0021 77.0434 84.8208C75.5925 83.5857 74.491 81.9211 73.7387 79.8269C70.9445 84.3375 67.4249 86.5928 63.1799 86.5928ZM66.0815 78.4576C67.2637 78.4576 68.3921 77.7595 69.4668 76.3634C70.5415 74.9672 71.3206 73.1147 71.8043 70.8056L74.7865 55.985C72.5297 56.0387 70.434 56.8979 68.4996 58.5625C66.6189 60.1735 65.1143 62.3214 63.9859 65.0063C62.8575 67.6912 62.2932 70.5372 62.2932 73.5442C62.2932 75.2089 62.6156 76.4439 63.2605 77.2494C63.959 78.0549 64.8994 78.4576 66.0815 78.4576Z" stroke="#D1F090" stroke-width="2" mask="url(#path-3-outside-3_674_652)"/>
<path d="M96.8494 86.5928C94.8075 86.5928 93.3566 85.5189 92.4969 83.371C91.6908 81.223 91.2878 77.7864 91.2878 73.061C91.2878 66.0802 92.2819 59.4485 94.2701 53.1659C94.7537 51.6087 95.5329 50.481 96.6076 49.7829C97.736 49.0312 99.2943 48.6553 101.282 48.6553C102.357 48.6553 103.109 48.7895 103.539 49.058C103.969 49.3265 104.184 49.8366 104.184 50.5884C104.184 51.4476 103.781 53.3807 102.975 56.3878C102.438 58.5357 102.008 60.4151 101.685 62.026C101.363 63.637 101.094 65.6238 100.879 67.9865C102.653 63.3685 104.641 59.6096 106.844 56.71C109.047 53.8103 111.196 51.7429 113.292 50.5078C115.442 49.2728 117.403 48.6553 119.176 48.6553C122.669 48.6553 124.415 50.4005 124.415 53.8908C124.415 55.985 123.824 59.7707 122.642 65.2479C121.621 69.9196 121.11 73.0073 121.11 74.5108C121.11 76.6587 121.89 77.7327 123.448 77.7327C124.523 77.7327 125.785 77.0883 127.236 75.7996C128.741 74.4571 130.729 72.3092 133.201 69.3558C133.846 68.604 134.571 68.2281 135.377 68.2281C136.076 68.2281 136.613 68.5503 136.989 69.1947C137.419 69.8391 137.634 70.7251 137.634 71.8528C137.634 74.0007 137.123 75.6653 136.102 76.8467C133.792 79.6926 131.293 82.0285 128.606 83.8542C125.973 85.68 122.964 86.5928 119.579 86.5928C116.839 86.5928 114.77 85.8142 113.373 84.257C111.976 82.646 111.277 80.337 111.277 77.3299C111.277 75.8264 111.653 73.1415 112.406 69.2753C113.104 65.8923 113.453 63.5564 113.453 62.2677C113.453 61.4085 113.158 60.9789 112.567 60.9789C111.868 60.9789 110.874 61.8918 109.584 63.7175C108.349 65.4896 107.059 67.8523 105.716 70.8056C104.426 73.759 103.378 76.8735 102.572 80.1491C101.981 82.6729 101.282 84.3912 100.476 85.3041C99.7242 86.1632 98.5151 86.5928 96.8494 86.5928Z" stroke="#D1F090" stroke-width="2" mask="url(#path-3-outside-3_674_652)"/>
<path d="M176.894 68.2281C177.593 68.2281 178.13 68.5503 178.507 69.1947C178.936 69.8391 179.151 70.7251 179.151 71.8528C179.151 74.0007 178.641 75.6653 177.62 76.8467C175.417 79.5316 172.999 81.8406 170.366 83.7737C167.733 85.6531 165.127 86.5928 162.547 86.5928C158.464 86.5928 155.347 84.2033 153.198 79.4242C150.941 82.2701 148.953 84.1764 147.233 85.143C145.567 86.1095 143.606 86.5928 141.349 86.5928C138.071 86.5928 135.358 85.3846 133.208 82.9682C131.113 80.4981 130.065 77.3031 130.065 73.3831C130.065 69.0873 130.978 65.1137 132.805 61.4622C134.632 57.7571 137.131 54.75 140.301 52.441C143.525 50.0783 147.126 48.6821 151.102 48.2525C152.123 37.8351 154.057 28.9481 156.905 21.5915C159.807 14.1812 163.595 10.4761 168.27 10.4761C170.581 10.4761 172.488 11.5232 173.993 13.6174C175.551 15.7116 176.33 18.8798 176.33 23.1219C176.33 29.1361 174.853 36.1705 171.897 44.2252C168.942 52.2799 164.992 60.5493 160.049 69.0336C160.264 72.1481 160.72 74.3766 161.419 75.719C162.171 77.0615 163.112 77.7327 164.24 77.7327C165.691 77.7327 167.169 77.0883 168.673 75.7996C170.178 74.5108 172.193 72.3629 174.718 69.3558C175.363 68.604 176.088 68.2281 176.894 68.2281ZM167.383 18.3697C166.363 18.3697 165.342 20.1954 164.321 23.8468C163.3 27.4446 162.413 32.17 161.661 38.0231C160.962 43.8762 160.452 49.9977 160.129 56.3878C166.148 43.2855 169.157 32.7607 169.157 24.8134C169.157 22.7729 168.969 21.1888 168.592 20.0611C168.27 18.9335 167.867 18.3697 167.383 18.3697ZM144.17 78.4576C145.191 78.4576 146.212 78.0549 147.233 77.2494C148.254 76.3902 149.544 74.833 151.102 72.5777C150.565 69.678 150.296 66.4293 150.296 62.8315C150.296 61.5428 150.35 59.4485 150.457 56.5489C147.502 57.4617 145.03 59.4485 143.042 62.5093C141.107 65.5164 140.14 68.8725 140.14 72.5777C140.14 76.4976 141.483 78.4576 144.17 78.4576Z" stroke="#D1F090" stroke-width="2" mask="url(#path-3-outside-3_674_652)"/>
<path d="M181.076 86.5928C178.013 86.5928 175.515 85.3846 173.58 82.9682C171.7 80.5518 170.759 77.3836 170.759 73.4637C170.759 69.1679 171.753 65.1137 173.742 61.3011C175.73 57.4349 178.363 54.3472 181.641 52.0382C184.972 49.6755 188.492 48.4942 192.199 48.4942C193.382 48.4942 194.161 48.7358 194.537 49.2191C194.967 49.6487 195.316 50.4541 195.585 51.6355C196.606 51.4207 197.734 51.3133 198.97 51.3133C200.26 51.3133 201.254 51.6355 201.952 52.2799C202.651 52.9243 203 53.8371 203 55.0185C203 56.2535 202.731 58.4014 202.194 61.4622C201.603 64.7378 201.146 67.8791 200.824 70.8862C200.501 73.8396 200.34 77.1689 200.34 80.874C200.34 82.9145 199.91 84.3912 199.051 85.3041C198.245 86.1632 196.901 86.5928 195.02 86.5928C193.193 86.5928 191.823 86.1632 190.91 85.3041C190.05 84.3912 189.62 82.9414 189.62 80.9546L189.701 79.6658C188.035 84.2838 185.16 86.5928 181.076 86.5928ZM184.22 78.4576C185.724 78.4576 187.095 77.4105 188.33 75.3163C189.566 73.2221 190.668 69.49 191.635 64.1203L193.167 55.985C190.963 56.0387 188.922 56.8979 187.041 58.5625C185.16 60.1735 183.656 62.3214 182.527 65.0063C181.399 67.6912 180.835 70.5372 180.835 73.5442C180.835 75.1552 181.13 76.3902 181.721 77.2494C182.366 78.0549 183.199 78.4576 184.22 78.4576Z" stroke="#D1F090" stroke-width="2" mask="url(#path-3-outside-3_674_652)"/>
</svg>
