<svg width="212" height="139" viewBox="0 0 212 139" fill="none" xmlns="http://www.w3.org/2000/svg">
<rect y="117.581" width="148" height="21" transform="rotate(-38.7222 0 117.581)" fill="#B095FF"/>
<path d="M10.5376 113.746C11.4946 112.979 12.4582 112.454 13.4282 112.172C14.4003 111.871 15.3862 111.79 16.3859 111.928L16.4795 114.699C15.6568 114.589 14.8937 114.628 14.1901 114.817C13.4885 114.986 12.8101 115.333 12.1547 115.859C11.7698 116.168 11.4911 116.459 11.3186 116.734C11.1461 117.009 11.0662 117.262 11.0789 117.491C11.0917 117.72 11.1731 117.928 11.3232 118.115C11.4984 118.333 11.7473 118.441 12.0701 118.439C12.3949 118.418 12.8279 118.276 13.369 118.013L15.4138 117.014C16.6355 116.428 17.669 116.172 18.5146 116.246C19.3601 116.32 20.0872 116.736 20.6961 117.496C21.2799 118.224 21.589 118.993 21.6232 119.803C21.649 120.603 21.4385 121.395 20.9917 122.181C20.5365 122.956 19.8876 123.681 19.045 124.357C18.3584 124.907 17.6447 125.36 16.9038 125.715C16.1545 126.059 15.4176 126.291 14.6931 126.41C13.9686 126.53 13.2887 126.545 12.6535 126.456L12.5099 123.624C13.0118 123.717 13.546 123.733 14.1123 123.672C14.6807 123.592 15.2427 123.44 15.7985 123.217C16.3646 122.985 16.8817 122.682 17.3498 122.306C17.7139 122.014 17.9864 121.736 18.1673 121.472C18.3586 121.199 18.453 120.943 18.4507 120.706C18.4484 120.469 18.3679 120.251 18.2095 120.053C18.0343 119.835 17.8103 119.715 17.5375 119.695C17.2564 119.664 16.8557 119.772 16.3353 120.018L14.0939 121.123C13.4029 121.455 12.741 121.695 12.1082 121.844C11.4773 121.973 10.8818 121.955 10.3215 121.789C9.7528 121.613 9.2391 121.239 8.78037 120.667C8.26325 120.022 7.98136 119.308 7.93469 118.525C7.87969 117.731 8.0683 116.922 8.50052 116.097C8.93274 115.272 9.61177 114.488 10.5376 113.746ZM24.9512 119.365L16.694 109.066L24.7144 102.636L26.3783 104.711L21.0418 108.99L22.7183 111.081L26.9625 107.678L28.5264 109.628L24.2822 113.031L25.9711 115.138L31.5105 110.696L33.1744 112.772L24.9512 119.365ZM41.4672 101.277C41.8451 102.154 42.0032 103.001 41.9416 103.819C41.8717 104.627 41.6227 105.383 41.1945 106.085C40.7579 106.777 40.1756 107.414 39.4474 107.998C38.4072 108.832 37.3405 109.346 36.2475 109.538C35.1462 109.721 34.0757 109.579 33.0361 109.114C31.9965 108.649 31.0305 107.86 30.1381 106.747C29.2456 105.633 28.6853 104.519 28.4571 103.403C28.2289 102.287 28.3277 101.217 28.7535 100.192C29.1709 99.1565 29.8945 98.2259 30.9244 97.4002C31.6422 96.8247 32.3861 96.3991 33.1563 96.1234C33.9181 95.8373 34.6739 95.7355 35.4236 95.8179C36.1733 95.9004 36.8993 96.1984 37.6016 96.712L36.0086 99.553C35.3459 99.0248 34.7521 98.7745 34.2274 98.8022C33.7131 98.8215 33.2063 99.0313 32.707 99.4316C32.2181 99.8237 31.8875 100.285 31.7152 100.816C31.5534 101.339 31.5655 101.919 31.7515 102.556C31.9396 103.174 32.3172 103.837 32.8843 104.545C33.4432 105.242 34.0028 105.758 34.5633 106.095C35.1238 106.432 35.6769 106.578 36.2224 106.534C36.7783 106.481 37.3215 106.242 37.8521 105.817C38.3514 105.416 38.6642 104.943 38.7907 104.398C38.9192 103.833 38.8165 103.215 38.4826 102.543L41.4672 101.277ZM41.5609 88.872C42.6012 88.0379 43.6668 87.5339 44.7577 87.3598C45.8507 87.1671 46.917 87.3034 47.9566 87.7687C48.9962 88.234 49.9622 89.0232 50.8546 90.1362C51.7471 91.2493 52.3074 92.3638 52.5356 93.4796C52.7638 94.5955 52.6691 95.6711 52.2517 96.7065C51.8364 97.7231 51.1086 98.6485 50.0683 99.4825C49.0281 100.317 47.9614 100.83 46.8684 101.023C45.7671 101.205 44.6966 101.064 43.657 100.598C42.6175 100.133 41.6514 99.3438 40.759 98.2308C39.8666 97.1177 39.3062 96.0032 39.078 94.8874C38.8499 93.7715 38.9486 92.7011 39.3744 91.6761C39.7918 90.6407 40.5207 89.706 41.5609 88.872ZM43.2499 90.9785C42.7506 91.3788 42.4252 91.8362 42.2737 92.3507C42.1223 92.8652 42.15 93.4326 42.3568 94.0529C42.5553 94.6629 42.9381 95.3215 43.5053 96.0289C44.0641 96.7258 44.6237 97.2427 45.1843 97.5794C45.7448 97.9161 46.2926 98.0665 46.8277 98.0305C47.3628 97.9945 47.88 97.7764 48.3793 97.376C48.8787 96.9757 49.1989 96.5224 49.3399 96.0163C49.4913 95.5018 49.4637 94.9344 49.2568 94.3141C49.05 93.6937 48.6672 93.0351 48.1084 92.3381C47.5412 91.6308 46.9815 91.1139 46.4294 90.7876C45.8689 90.4509 45.321 90.3005 44.7859 90.3365C44.2612 90.3641 43.7492 90.5781 43.2499 90.9785ZM57.8563 76.0629L66.1135 86.3614L63.1331 88.751L55.468 85.7452L53.4617 84.8415L53.4461 84.854L55.0349 86.7077L59.201 91.9037L56.8292 93.8054L48.572 83.5069L51.5523 81.1173L59.2175 84.1231L61.2238 85.0267L61.2394 85.0142L59.6506 83.1606L55.4845 77.9646L57.8563 76.0629ZM64.5068 70.7306C66.1191 69.4378 67.7105 68.8968 69.2808 69.1074C70.8615 69.3098 72.3107 70.2328 73.6286 71.8764C74.9464 73.52 75.5322 75.1352 75.3861 76.7221C75.2504 78.3006 74.3763 79.7363 72.7639 81.0291L68.3949 84.5321L60.1377 74.2337L64.5068 70.7306ZM70.8723 79.2133C71.7461 78.5127 72.1721 77.7438 72.1504 76.9068C72.1307 76.051 71.708 75.1081 70.8823 74.0783C70.0566 73.0484 69.2323 72.4361 68.4096 72.2412C67.589 72.0277 66.7417 72.2712 65.8679 72.9718L64.448 74.1103L69.4523 80.3518L70.8723 79.2133ZM80.6375 57.7972L88.8947 68.0956L86.2109 70.2475L77.9537 59.949L80.6375 57.7972ZM74.0215 63.1018L82.2787 73.4003L79.5949 75.5521L71.3377 65.2537L74.0215 63.1018ZM82.6545 62.8706L84.3185 64.9459L77.5777 70.3506L75.9137 68.2753L82.6545 62.8706ZM100.538 58.7602L97.7762 60.9746L95.1943 59.2251L91.6678 62.0526L92.7986 64.9656L90.0991 67.13L85.462 53.929L88.6764 51.3517L100.538 58.7602ZM90.7034 59.8266L93.2312 57.7998L88.6268 54.647L90.7034 59.8266ZM102.763 40.0574L111.02 50.3559L108.04 52.7454L100.374 49.7396L98.3682 48.836L98.3526 48.8485L99.9414 50.7021L104.108 55.8982L101.736 57.7999L93.4785 47.5014L96.4589 45.1118L104.124 48.1176L106.13 49.0212L106.146 49.0087L104.557 47.1551L100.391 41.959L102.763 40.0574ZM109.413 34.7251C111.026 33.4323 112.617 32.8913 114.187 33.1019C115.768 33.3043 117.217 34.2273 118.535 35.8708C119.853 37.5144 120.439 39.1297 120.293 40.7166C120.157 42.2951 119.283 43.7308 117.67 45.0236L113.301 48.5266L105.044 38.2282L109.413 34.7251ZM115.779 43.2078C116.653 42.5072 117.079 41.7383 117.057 40.9013C117.037 40.0454 116.615 39.1026 115.789 38.0728C114.963 37.0429 114.139 36.4306 113.316 36.2357C112.495 36.0221 111.648 36.2657 110.774 36.9663L109.354 38.1048L114.359 44.3463L115.779 43.2078Z" fill="black"/>
<rect x="45" y="122.607" width="196" height="21" transform="rotate(-38.7222 45 122.607)" fill="#B095FF"/>
<path d="M56.552 118.215C57.7795 117.231 58.9649 116.759 60.1081 116.799C61.2534 116.821 62.2097 117.31 62.977 118.267C63.8194 119.318 64.1236 120.39 63.8895 121.484C63.6554 122.577 62.9246 123.616 61.6971 124.6L61.56 124.941L59.5159 126.58L62.531 130.34L59.894 132.454L51.6368 122.156L56.552 118.215ZM59.8932 123.15C60.4134 122.733 60.7201 122.316 60.8133 121.899C60.9066 121.483 60.7697 121.046 60.4027 120.588C60.0441 120.141 59.6513 119.917 59.2244 119.918C58.7975 119.918 58.324 120.127 57.8039 120.544L55.9003 122.07L57.9896 124.676L59.8932 123.15ZM61.9196 122.448L69.3031 124.91L66.3384 127.287L60.0857 124.892L61.9196 122.448ZM70.6521 123.829L62.3949 113.53L70.4152 107.1L72.0791 109.175L66.7427 113.454L68.4191 115.545L72.6633 112.142L74.2272 114.092L69.983 117.495L71.672 119.602L77.2113 115.16L78.8752 117.236L70.6521 123.829ZM81.5229 98.1937L89.7801 108.492L86.7998 110.882L79.1346 107.876L77.1283 106.972L77.1127 106.985L78.7015 108.838L82.8676 114.035L80.4958 115.936L72.2386 105.638L75.219 103.248L82.8841 106.254L84.8904 107.158L84.906 107.145L83.3172 105.291L79.1511 100.095L81.5229 98.1937ZM92.4644 89.4209L94.1284 91.4962L90.7735 94.1861L97.3668 102.409L94.6829 104.561L88.0897 96.3379L84.7193 99.0403L83.0553 96.965L92.4644 89.4209ZM110.323 92.0213L107.561 94.2357L104.979 92.4863L101.453 95.3137L102.583 98.2267L99.8839 100.391L95.2467 87.1901L98.4611 84.6128L110.323 92.0213ZM100.488 93.0877L103.016 91.061L98.4116 87.9082L100.488 93.0877ZM112.54 86.8338L117.705 82.6927L119.369 84.768L111.52 91.061L103.263 80.7625L105.947 78.6106L112.54 86.8338ZM117.378 69.4456C118.22 68.77 119.047 68.3297 119.856 68.1248C120.666 67.9198 121.432 67.9471 122.152 68.2066C122.873 68.4661 123.525 68.96 124.109 69.6881C124.693 70.4163 125.033 71.1604 125.13 71.9203C125.227 72.6803 125.087 73.4332 124.711 74.1791C124.335 74.9249 123.725 75.6357 122.883 76.3113L120.839 77.9502L123.591 81.383L120.907 83.5349L112.65 73.2364L117.378 69.4456ZM120.847 74.6362C121.409 74.1858 121.739 73.7336 121.836 73.2795C121.936 72.8067 121.793 72.331 121.41 71.8525C121.026 71.374 120.597 71.1371 120.122 71.1418C119.649 71.1277 119.132 71.3459 118.57 71.7963L116.948 73.0974L119.225 75.9373L120.847 74.6362ZM132.35 70.9508L137.515 66.8097L139.179 68.885L131.33 75.178L123.073 64.8795L125.757 62.7276L132.35 70.9508ZM150.079 60.1454L147.317 62.3598L144.735 60.6103L141.209 63.4378L142.339 66.3508L139.64 68.5152L135.003 55.3141L138.217 52.7369L150.079 60.1454ZM140.244 61.2118L142.772 59.185L138.168 56.0322L140.244 61.2118ZM150.384 42.9815L152.048 45.0568L148.693 47.7467L155.287 55.9698L152.603 58.1217L146.009 49.8985L142.639 52.6009L140.975 50.5256L150.384 42.9815ZM161.587 37.4086L156.266 41.6749L158.018 43.8594L162.262 40.4564L163.926 42.5317L159.682 45.9347L162.859 49.898L160.176 52.0499L151.918 41.7514L159.923 35.3333L161.587 37.4086ZM165.89 30.2928C166.93 29.4587 167.996 28.9547 169.087 28.7807C170.18 28.5879 171.246 28.7242 172.286 29.1895C173.325 29.6548 174.291 30.444 175.184 31.557C176.076 32.6701 176.637 33.7846 176.865 34.9004C177.093 36.0163 176.998 37.0919 176.581 38.1273C176.166 39.1439 175.438 40.0693 174.397 40.9033C173.357 41.7374 172.291 42.2508 171.198 42.4436C170.096 42.6259 169.026 42.4845 167.986 42.0191C166.947 41.5538 165.981 40.7647 165.088 39.6516C164.196 38.5385 163.635 37.424 163.407 36.3082C163.179 35.1923 163.278 34.1219 163.704 33.0969C164.121 32.0616 164.85 31.1268 165.89 30.2928ZM167.579 32.3993C167.08 32.7996 166.754 33.2571 166.603 33.7716C166.451 34.2861 166.479 34.8535 166.686 35.4738C166.884 36.0837 167.267 36.7423 167.834 37.4497C168.393 38.1466 168.953 38.6635 169.513 39.0002C170.074 39.3369 170.622 39.4873 171.157 39.4513C171.692 39.4153 172.209 39.1972 172.708 38.7968C173.208 38.3965 173.528 37.9432 173.669 37.4371C173.82 36.9226 173.793 36.3552 173.586 35.7349C173.379 35.1146 172.996 34.4559 172.437 33.759C171.87 33.0516 171.311 32.5347 170.758 32.2084C170.198 31.8717 169.65 31.7213 169.115 31.7573C168.59 31.7849 168.078 31.9989 167.579 32.3993ZM177.816 20.9868C179.044 20.0026 180.229 19.5307 181.372 19.5711C182.518 19.5927 183.474 20.0821 184.241 21.0391C185.084 22.0898 185.388 23.1618 185.154 24.2553C184.92 25.3488 184.189 26.3876 182.961 27.3718L182.824 27.7124L180.78 29.3513L183.795 33.1118L181.158 35.2262L172.901 24.9277L177.816 20.9868ZM181.158 25.9213C181.678 25.5043 181.984 25.0875 182.078 24.6709C182.171 24.2544 182.034 23.8172 181.667 23.3595C181.308 22.9122 180.916 22.6888 180.489 22.6893C180.062 22.6897 179.588 22.8985 179.068 23.3155L177.165 24.8418L179.254 27.4477L181.158 25.9213ZM183.184 25.2195L190.567 27.6821L187.603 30.0592L181.35 27.664L183.184 25.2195ZM195.58 6.74368L203.838 17.0422L201.466 18.9438L197.675 14.2159L195.213 10.9858L195.182 11.0108L198.969 20.9456L196.8 22.6846L187.926 16.8284L187.895 16.8534L190.513 19.9584L194.304 24.6863L191.916 26.6005L183.659 16.302L187.482 13.2368L193.309 17.1786L195.637 18.9002L195.669 18.8752L194.523 16.2308L191.914 9.68374L195.58 6.74368Z" fill="black"/>
</svg>
