<svg width="93" height="48" viewBox="0 0 93 48" fill="none" xmlns="http://www.w3.org/2000/svg">
<path d="M0.533582 13.5707C0.529585 11.984 1.65044 10.3593 3.95233 8.78938C6.23719 7.23111 9.57834 5.80461 13.7533 4.59501C22.0965 2.17778 33.6563 0.658798 46.4496 0.624504C59.243 0.590209 70.8102 2.04719 79.1655 4.41966C83.3465 5.60686 86.6948 7.01543 88.9875 8.56143C91.2973 10.1189 92.4263 11.7376 92.4303 13.3243C92.4343 14.911 91.3134 16.5357 89.0116 18.1056C86.7267 19.6639 83.3855 21.0904 79.2106 22.3C70.8673 24.7172 59.3076 26.2362 46.5142 26.2705C33.7209 26.3048 22.1537 24.8478 13.7984 22.4753C9.61735 21.2881 6.26905 19.8796 3.97638 18.3336C1.66661 16.776 0.53758 15.1574 0.533582 13.5707Z" fill="black" stroke="#B095FF"/>
<path d="M0.551649 20.7444C0.547651 19.1577 1.66851 17.533 3.9704 15.9631C6.25525 14.4048 9.5964 12.9783 13.7714 11.7687C22.1146 9.35148 33.6744 7.8325 46.4677 7.79821C59.261 7.76392 70.8283 9.2209 79.1836 11.5934C83.3646 12.7806 86.7129 14.1891 89.0056 15.7351C91.3153 17.2927 92.4444 18.9113 92.4484 20.498C92.4524 22.0847 91.3315 23.7094 89.0296 25.2793C86.7448 26.8376 83.4036 28.2641 79.2286 29.4737C70.8854 31.8909 59.3257 33.4099 46.5323 33.4442C33.739 33.4785 22.1717 32.0215 13.8164 29.649C9.63541 28.4618 6.28712 27.0533 3.99445 25.5073C1.68467 23.9497 0.555646 22.3311 0.551649 20.7444Z" fill="black" stroke="#B095FF"/>
<path d="M0.569715 27.9184C0.565717 26.3318 1.68657 24.707 3.98847 23.1372C6.27332 21.5789 9.61447 20.1524 13.7895 18.9428C22.1327 16.5256 33.6924 15.0066 46.4858 14.9723C59.2791 14.938 70.8464 16.395 79.2016 18.7674C83.3827 19.9546 86.731 21.3632 89.0236 22.9092C91.3334 24.4667 92.4624 26.0854 92.4664 27.6721C92.4704 29.2588 91.3496 30.8835 89.0477 32.4534C86.7628 34.0117 83.4217 35.4382 79.2467 36.6478C70.9035 39.065 59.3437 40.584 46.5504 40.6183C33.757 40.6526 22.1898 39.1956 13.8345 36.8231C9.65348 35.6359 6.30519 34.2273 4.01251 32.6813C1.70274 31.1238 0.573713 29.5051 0.569715 27.9184Z" fill="black" stroke="#B095FF"/>
<path d="M0.569715 34.5707C0.565717 32.984 1.68657 31.3593 3.98847 29.7894C6.27332 28.2311 9.61447 26.8046 13.7895 25.595C22.1327 23.1778 33.6924 21.6588 46.4858 21.6245C59.2791 21.5902 70.8464 23.0472 79.2016 25.4197C83.3827 26.6069 86.731 28.0154 89.0236 29.5614C91.3334 31.1189 92.4624 32.7376 92.4664 34.3243C92.4704 35.911 91.3496 37.5357 89.0477 39.1056C86.7628 40.6639 83.4217 42.0904 79.2467 43.3C70.9035 45.7172 59.3437 47.2362 46.5504 47.2705C33.757 47.3048 22.1898 45.8478 13.8345 43.4753C9.65348 42.2881 6.30519 40.8796 4.01251 39.3336C1.70274 37.776 0.573713 36.1574 0.569715 34.5707Z" fill="black" stroke="#B095FF"/>
</svg>
