<svg width="197" height="163" viewBox="0 0 197 163" fill="none" xmlns="http://www.w3.org/2000/svg">
<rect x="12.446" y="50" width="98.2889" height="21" transform="rotate(36.3465 12.446 50)" fill="#D1F090"/>
<path d="M19.4727 59.8882C20.3425 60.5283 20.9808 61.2131 21.3875 61.9428C21.7942 62.6724 21.965 63.4189 21.9 64.1822C21.835 64.9455 21.5259 65.703 20.9727 66.4548C20.4195 67.2065 19.7883 67.727 19.0789 68.0161C18.3695 68.3053 17.606 68.3643 16.7884 68.1931C15.9708 68.0219 15.1271 67.6162 14.2572 66.9761L12.1469 65.4233L9.53918 68.9673L6.76844 66.9285L14.5916 56.2966L19.4727 59.8882ZM15.3513 64.578C15.9312 65.0048 16.4531 65.2067 16.9169 65.1838C17.3994 65.158 17.8224 64.8981 18.1859 64.4041C18.5494 63.9101 18.6677 63.4344 18.5408 62.9768C18.4326 62.5165 18.0886 62.0729 17.5086 61.6462L15.8333 60.4135L13.676 63.3453L15.3513 64.578ZM26.1086 81.1595L23.2573 79.0615L24.2825 76.116L20.6418 73.4371L18.1186 75.2802L15.3317 73.2296L26.8922 65.3477L30.2107 67.7895L26.1086 81.1595ZM22.5442 71.9317L25.1538 73.8519L27.0138 68.5907L22.5442 71.9317ZM44.7531 78.4902L36.9299 89.1221L33.8531 86.8581L34.7824 78.6773L35.1386 76.5059L35.1225 76.4941L33.7408 78.5068L29.7937 83.871L27.3451 82.0693L35.1683 71.4374L38.2451 73.7014L37.3158 81.8822L36.9596 84.0536L36.9757 84.0654L38.3574 82.0527L42.3046 76.6885L44.7531 78.4902ZM51.6189 83.5422C53.2835 84.767 54.2163 86.1652 54.4174 87.7368C54.6291 89.3163 54.1107 90.9544 52.8622 92.6512C51.6136 94.348 50.2039 95.3303 48.6329 95.598C47.0727 95.8736 45.4603 95.3989 43.7957 94.1741L39.2852 90.8552L47.1084 80.2233L51.6189 83.5422ZM45.0628 91.8784C45.9649 92.5422 46.8176 92.7558 47.6208 92.5191C48.4426 92.2796 49.2447 91.6282 50.027 90.565C50.8093 89.5018 51.1886 88.5477 51.1649 87.7025C51.1598 86.8545 50.7063 86.0986 49.8042 85.4349L48.3382 84.3562L43.5969 90.7998L45.0628 91.8784ZM60.1199 106.186L57.2686 104.088L58.2937 101.142L54.6531 98.4634L52.1298 100.307L49.343 98.2559L60.9035 90.374L64.2219 92.8158L60.1199 106.186ZM56.5554 96.958L59.1651 98.8782L61.0251 93.617L56.5554 96.958Z" fill="black"/>
<path d="M147.925 101.184C134.624 118.085 120.661 131.85 108.85 140.446C102.941 144.746 97.5944 147.735 93.1553 149.186C88.6947 150.644 85.2848 150.508 83.0997 148.789C80.9145 147.069 79.9818 143.786 80.3505 139.108C80.7174 134.452 82.3661 128.553 85.157 121.799C90.736 108.298 100.834 91.4912 114.135 74.5908C127.435 57.6904 141.398 43.9254 153.21 35.3294C159.118 31.0293 164.465 28.0403 168.904 26.5894C173.365 25.1315 176.775 25.2665 178.96 26.9863C181.145 28.7061 182.078 31.9887 181.709 36.667C181.342 41.3228 179.693 47.2221 176.902 53.9759C171.323 67.4769 161.226 84.2838 147.925 101.184Z" fill="black" stroke="#B095FF"/>
<path d="M140.067 94.9997C126.766 111.9 112.76 125.629 100.879 134.169C94.9352 138.441 89.5472 141.396 85.062 142.811C80.5579 144.231 77.0921 144.061 74.8485 142.295C72.6049 140.529 71.6248 137.201 71.9468 132.489C72.2674 127.797 73.8739 121.865 76.6291 115.084C82.137 101.528 92.1901 84.6876 105.491 67.7878C118.791 50.888 132.797 37.1583 144.678 28.6188C150.622 24.3469 156.01 21.3913 160.495 19.9769C164.999 18.5565 168.465 18.7268 170.709 20.4925C172.952 22.2583 173.932 25.5869 173.61 30.2988C173.29 34.9907 171.683 40.9225 168.928 47.7036C163.42 61.2593 153.367 78.0999 140.067 94.9997Z" fill="black" stroke="#B095FF"/>
<path d="M131.423 88.1968C118.122 105.097 104.159 118.862 92.3474 127.458C86.4387 131.758 81.0921 134.747 76.653 136.198C72.1924 137.656 68.7825 137.521 66.5973 135.801C64.4121 134.082 63.4795 130.799 63.8481 126.121C64.2151 121.465 65.8638 115.565 68.6546 108.812C74.2337 95.3107 84.3314 78.5038 97.6322 61.6033C110.933 44.7029 124.896 30.9379 136.707 22.342C142.616 18.0419 147.963 15.0529 152.402 13.602C156.862 12.144 160.272 12.2791 162.457 13.9989C164.643 15.7186 165.575 19.0012 165.207 23.6795C164.84 28.3354 163.191 34.2347 160.4 40.9885C154.821 54.4895 144.723 71.2964 131.423 88.1968Z" fill="black" stroke="#B095FF"/>
<path d="M96.7264 79.3384C97.4259 79.0114 97.8659 79.12 97.9498 79.6401C98.0336 80.1603 97.7543 81.0495 97.1733 82.1121C94.4796 87.0373 92.6874 91.4769 91.977 94.9837C91.2667 98.4905 91.6633 100.941 93.1269 102.088C94.5859 103.241 97.0608 103.051 100.302 101.536C103.544 100.021 107.438 97.2358 111.592 93.4599C112.038 93.0524 112.466 92.7229 112.849 92.4902C113.233 92.2576 113.566 92.1264 113.828 92.1043C114.091 92.0822 114.278 92.1696 114.379 92.3614C114.479 92.5532 114.492 92.8457 114.416 93.222C114.339 93.5983 114.176 94.0511 113.934 94.5541C113.692 95.0571 113.378 95.6006 113.008 96.1531C112.638 96.7056 112.22 97.2564 111.779 97.7736C111.337 98.2908 110.881 98.7643 110.435 99.1668C105.095 104.021 100.089 107.602 95.9212 109.549C91.7536 111.497 88.5714 111.742 86.695 110.26C84.814 108.785 84.3046 105.634 85.218 101.126C86.1314 96.617 88.4355 90.9096 91.8982 84.5777C92.4792 83.5151 93.3143 82.3662 94.2197 81.3836C95.1252 80.401 96.0268 79.6653 96.7264 79.3384ZM122.909 59.3539C117.583 66.1207 112.196 70.7743 110.883 69.7413C109.571 68.7083 112.828 62.378 118.153 55.6112C123.479 48.8443 128.866 44.1907 130.179 45.2237C131.491 46.2567 128.234 52.587 122.909 59.3539ZM132.42 66.8392C127.094 73.6061 121.707 78.2597 120.394 77.2267C119.082 76.1937 122.339 69.8634 127.664 63.0965C132.99 56.3297 138.377 51.6761 139.69 52.7091C141.002 53.7421 137.745 60.0724 132.42 66.8392Z" fill="#B095FF"/>
</svg>
