<svg width="316" height="435" viewBox="0 0 316 435" fill="none" xmlns="http://www.w3.org/2000/svg">
<circle cx="73.3106" cy="134.242" r="53.0716" transform="rotate(-31.4546 73.3106 134.242)" fill="#333333" stroke="#C7C7C7" stroke-width="0.5"/>
<circle cx="76.117" cy="117.404" r="53.0716" transform="rotate(-31.4546 76.117 117.404)" fill="#333333" stroke="#C7C7C7" stroke-width="0.5"/>
<circle cx="90.149" cy="106.178" r="53.0716" transform="rotate(-31.4546 90.149 106.178)" fill="#333333" stroke="#C7C7C7" stroke-width="0.5"/>
<circle cx="103.246" cy="95.8879" r="53.0716" transform="rotate(-31.4546 103.246 95.8879)" fill="#333333" stroke="#C7C7C7" stroke-width="0.5"/>
<circle cx="116.342" cy="88.093" r="53.0716" transform="rotate(-31.4546 116.342 88.093)" fill="#333333" stroke="#C7C7C7" stroke-width="0.5"/>
<circle cx="131.504" cy="78.8182" r="53.0716" transform="rotate(-31.4546 131.504 78.8182)" fill="#333333" stroke="#C7C7C7" stroke-width="0.5"/>
<circle cx="149.87" cy="74.3722" r="53.0716" transform="rotate(-31.4546 149.87 74.3722)" fill="#333333" stroke="#C7C7C7" stroke-width="0.5"/>
<circle cx="168.99" cy="73.3106" r="53.0716" transform="rotate(-31.4546 168.99 73.3106)" fill="#333333" stroke="#C7C7C7" stroke-width="0.5"/>
<circle cx="187.437" cy="78.1141" r="53.0716" transform="rotate(-31.4546 187.437 78.1141)" fill="#333333" stroke="#C7C7C7" stroke-width="0.5"/>
<circle cx="205.211" cy="87.4687" r="53.0716" transform="rotate(-31.4546 205.211 87.4687)" fill="#333333" stroke="#C7C7C7" stroke-width="0.5"/>
<circle cx="219.12" cy="98.8276" r="53.0716" transform="rotate(-31.4546 219.12 98.8276)" fill="#333333" stroke="#C7C7C7" stroke-width="0.5"/>
<circle cx="231.404" cy="116.468" r="53.0716" transform="rotate(-31.4546 231.404 116.468)" fill="#333333" stroke="#C7C7C7" stroke-width="0.5"/>
<circle cx="237.017" cy="133.307" r="53.0716" transform="rotate(-31.4546 237.017 133.307)" fill="#333333" stroke="#C7C7C7" stroke-width="0.5"/>
<circle cx="241.694" cy="152.016" r="53.0716" transform="rotate(-31.4546 241.694 152.016)" fill="#333333" stroke="#C7C7C7" stroke-width="0.5"/>
<circle cx="239.824" cy="172.596" r="53.0716" transform="rotate(-31.4546 239.824 172.596)" fill="#333333" stroke="#C7C7C7" stroke-width="0.5"/>
<circle cx="234.619" cy="187.066" r="53.0716" transform="rotate(-31.4546 234.619 187.066)" fill="#333333" stroke="#C7C7C7" stroke-width="0.5"/>
<circle cx="225.737" cy="203.236" r="53.0716" transform="rotate(-31.4546 225.737 203.236)" fill="#333333" stroke="#C7C7C7" stroke-width="0.5"/>
<circle cx="217.906" cy="220.065" r="53.0716" transform="rotate(-31.4546 217.906 220.065)" fill="#333333" stroke="#C7C7C7" stroke-width="0.5"/>
<circle cx="205.673" cy="234.127" r="53.0716" transform="rotate(-31.4546 205.673 234.127)" fill="#333333" stroke="#C7C7C7" stroke-width="0.5"/>
<circle cx="188.915" cy="244.378" r="53.0716" transform="rotate(-31.4546 188.915 244.378)" fill="#333333" stroke="#C7C7C7" stroke-width="0.5"/>
<circle cx="171.534" cy="252.111" r="53.0716" transform="rotate(-31.4546 171.534 252.111)" fill="#333333" stroke="#C7C7C7" stroke-width="0.5"/>
<circle cx="153.761" cy="258.659" r="53.0716" transform="rotate(-31.4546 153.761 258.659)" fill="#333333" stroke="#C7C7C7" stroke-width="0.5"/>
<circle cx="158.438" cy="275.497" r="53.0716" transform="rotate(-31.4546 158.438 275.497)" fill="#333333" stroke="#C7C7C7" stroke-width="0.5"/>
<circle cx="168.728" cy="288.594" r="53.0716" transform="rotate(-31.4546 168.728 288.594)" fill="#333333" stroke="#C7C7C7" stroke-width="0.5"/>
<circle cx="179.018" cy="304.497" r="53.0716" transform="rotate(-31.4546 179.018 304.497)" fill="#333333" stroke="#C7C7C7" stroke-width="0.5"/>
<circle cx="192.115" cy="320.4" r="53.0716" transform="rotate(-31.4546 192.115 320.4)" fill="#333333" stroke="#C7C7C7" stroke-width="0.5"/>
<circle cx="207.082" cy="337.238" r="53.0716" transform="rotate(-31.4546 207.082 337.238)" fill="#333333" stroke="#C7C7C7" stroke-width="0.5"/>
<circle cx="223.921" cy="349.399" r="53.0716" transform="rotate(-31.4546 223.921 349.399)" fill="#333333" stroke="#C7C7C7" stroke-width="0.5"/>
<circle cx="237.953" cy="361.56" r="53.0716" transform="rotate(-31.4546 237.953 361.56)" fill="#333333" stroke="#C7C7C7" stroke-width="0.5"/>
</svg>
